G04*
G04 #@! TF.GenerationSoftware,Altium Limited,Altium Designer,24.3.1 (35)*
G04*
G04 Layer_Color=16711935*
%FSLAX44Y44*%
%MOMM*%
G71*
G04*
G04 #@! TF.SameCoordinates,5EED45F6-1682-4EC0-A4BB-04ECB5DEF22F*
G04*
G04*
G04 #@! TF.FilePolarity,Negative*
G04*
G01*
G75*
%ADD31C,1.8532*%
%ADD32C,1.7272*%
%ADD33C,1.9812*%
%ADD34C,1.6112*%
%ADD35C,1.1032*%
%ADD36C,0.8382*%
D31*
X464820Y243840D02*
D03*
Y218440D02*
D03*
Y193040D02*
D03*
X490220Y111760D02*
D03*
Y86360D02*
D03*
Y60960D02*
D03*
X213360Y231140D02*
D03*
X187960D02*
D03*
X162560D02*
D03*
X33020Y38100D02*
D03*
Y63500D02*
D03*
Y88900D02*
D03*
D32*
X566420Y254000D02*
D03*
Y279400D02*
D03*
Y304800D02*
D03*
Y330200D02*
D03*
Y355600D02*
D03*
Y381000D02*
D03*
Y406400D02*
D03*
Y431800D02*
D03*
Y457200D02*
D03*
Y482600D02*
D03*
X642620Y35560D02*
D03*
Y60960D02*
D03*
Y86360D02*
D03*
Y111760D02*
D03*
Y137160D02*
D03*
Y162560D02*
D03*
X160020Y157480D02*
D03*
X185420D02*
D03*
X210820D02*
D03*
X236220D02*
D03*
X381000Y-12700D02*
D03*
X355600D02*
D03*
X330200D02*
D03*
X304800D02*
D03*
Y584200D02*
D03*
X330200D02*
D03*
X355600D02*
D03*
X381000D02*
D03*
X541020Y553720D02*
D03*
X566420D02*
D03*
X591820D02*
D03*
X617220D02*
D03*
X642620D02*
D03*
X668020D02*
D03*
X83820Y35560D02*
D03*
Y60960D02*
D03*
Y86360D02*
D03*
Y111760D02*
D03*
Y137160D02*
D03*
Y162560D02*
D03*
Y213360D02*
D03*
Y238760D02*
D03*
Y264160D02*
D03*
Y289560D02*
D03*
Y314960D02*
D03*
Y340360D02*
D03*
Y365760D02*
D03*
Y391160D02*
D03*
X566420Y35560D02*
D03*
Y60960D02*
D03*
Y86360D02*
D03*
Y111760D02*
D03*
Y137160D02*
D03*
Y162560D02*
D03*
Y187960D02*
D03*
Y213360D02*
D03*
X642620Y431800D02*
D03*
Y406400D02*
D03*
Y381000D02*
D03*
Y355600D02*
D03*
Y330200D02*
D03*
Y304800D02*
D03*
D33*
X33020Y238760D02*
D03*
Y213360D02*
D03*
Y289560D02*
D03*
Y264160D02*
D03*
X323850Y490220D02*
D03*
X298450D02*
D03*
X374650D02*
D03*
X349250D02*
D03*
D34*
X338340Y99060D02*
D03*
X403340D02*
D03*
D35*
X148560Y30480D02*
D03*
X162560D02*
D03*
D36*
X351790Y349250D02*
D03*
X397510Y290830D02*
D03*
X306070Y289560D02*
D03*
X266700Y254000D02*
D03*
X482600Y381000D02*
D03*
X219710Y486410D02*
D03*
X275590Y485140D02*
D03*
X266700Y414020D02*
D03*
X200660Y402590D02*
D03*
X182880Y363220D02*
D03*
M02*
