G04*
G04 #@! TF.GenerationSoftware,Altium Limited,Altium Designer,24.3.1 (35)*
G04*
G04 Layer_Physical_Order=2*
G04 Layer_Color=16711680*
%FSLAX44Y44*%
%MOMM*%
G71*
G04*
G04 #@! TF.SameCoordinates,5EED45F6-1682-4EC0-A4BB-04ECB5DEF22F*
G04*
G04*
G04 #@! TF.FilePolarity,Positive*
G04*
G01*
G75*
%ADD38C,1.6500*%
%ADD39C,1.5240*%
%ADD40C,1.7780*%
%ADD41C,1.4080*%
%ADD42C,0.9000*%
%ADD43C,0.6350*%
G36*
X386529Y594206D02*
X385749Y593190D01*
X384922Y593668D01*
X382338Y594360D01*
X379662D01*
X377078Y593668D01*
X374762Y592330D01*
X372870Y590438D01*
X371532Y588122D01*
X370840Y585538D01*
Y582862D01*
X371532Y580278D01*
X372870Y577962D01*
X374762Y576070D01*
X377078Y574732D01*
X379662Y574040D01*
X382338D01*
X384922Y574732D01*
X387238Y576070D01*
X389130Y577962D01*
X390468Y580278D01*
X391160Y582862D01*
Y585538D01*
X390468Y588122D01*
X389990Y588949D01*
X391006Y589729D01*
X401221Y579515D01*
Y571500D01*
X401615Y569518D01*
X402738Y567837D01*
X404418Y566715D01*
X406400Y566320D01*
X680620D01*
Y5179D01*
X411480D01*
X409498Y4785D01*
X407817Y3663D01*
X406695Y1982D01*
X406301Y0D01*
Y-8015D01*
X381395Y-32920D01*
X309485D01*
X299271Y-22706D01*
X300051Y-21690D01*
X300878Y-22168D01*
X303462Y-22860D01*
X306138D01*
X308722Y-22168D01*
X311038Y-20830D01*
X312930Y-18938D01*
X314268Y-16622D01*
X314960Y-14038D01*
Y-11362D01*
X314268Y-8778D01*
X312930Y-6462D01*
X311038Y-4570D01*
X308722Y-3232D01*
X306138Y-2540D01*
X303462D01*
X300878Y-3232D01*
X298562Y-4570D01*
X296670Y-6462D01*
X295332Y-8778D01*
X294640Y-11362D01*
Y-14038D01*
X295332Y-16622D01*
X295810Y-17449D01*
X294794Y-18229D01*
X284580Y-8015D01*
Y0D01*
X284185Y1982D01*
X283062Y3663D01*
X281382Y4785D01*
X279400Y5179D01*
X5179D01*
Y566320D01*
X279400D01*
X281382Y566715D01*
X283062Y567837D01*
X284185Y569518D01*
X284580Y571500D01*
Y579515D01*
X294794Y589729D01*
X295810Y588949D01*
X295332Y588122D01*
X294640Y585538D01*
Y585470D01*
X303530D01*
Y594360D01*
X303462D01*
X300878Y593668D01*
X300051Y593190D01*
X299271Y594206D01*
X301865Y596800D01*
X383935D01*
X386529Y594206D01*
D02*
G37*
%LPC*%
G36*
X306138Y594360D02*
X306070D01*
Y585470D01*
X314960D01*
Y585538D01*
X314268Y588122D01*
X312930Y590438D01*
X311038Y592330D01*
X308722Y593668D01*
X306138Y594360D01*
D02*
G37*
G36*
X356938D02*
X354262D01*
X351678Y593668D01*
X349362Y592330D01*
X347470Y590438D01*
X346132Y588122D01*
X345440Y585538D01*
Y582862D01*
X346132Y580278D01*
X347470Y577962D01*
X349362Y576070D01*
X351678Y574732D01*
X354262Y574040D01*
X356938D01*
X359522Y574732D01*
X361838Y576070D01*
X363730Y577962D01*
X365068Y580278D01*
X365760Y582862D01*
Y585538D01*
X365068Y588122D01*
X363730Y590438D01*
X361838Y592330D01*
X359522Y593668D01*
X356938Y594360D01*
D02*
G37*
G36*
X331538D02*
X328862D01*
X326278Y593668D01*
X323962Y592330D01*
X322070Y590438D01*
X320732Y588122D01*
X320040Y585538D01*
Y582862D01*
X320732Y580278D01*
X322070Y577962D01*
X323962Y576070D01*
X326278Y574732D01*
X328862Y574040D01*
X331538D01*
X334122Y574732D01*
X336438Y576070D01*
X338330Y577962D01*
X339668Y580278D01*
X340360Y582862D01*
Y585538D01*
X339668Y588122D01*
X338330Y590438D01*
X336438Y592330D01*
X334122Y593668D01*
X331538Y594360D01*
D02*
G37*
G36*
X314960Y582930D02*
X306070D01*
Y574040D01*
X306138D01*
X308722Y574732D01*
X311038Y576070D01*
X312930Y577962D01*
X314268Y580278D01*
X314960Y582862D01*
Y582930D01*
D02*
G37*
G36*
X303530D02*
X294640D01*
Y582862D01*
X295332Y580278D01*
X296670Y577962D01*
X298562Y576070D01*
X300878Y574732D01*
X303462Y574040D01*
X303530D01*
Y582930D01*
D02*
G37*
G36*
X669358Y563880D02*
X669290D01*
Y554990D01*
X678180D01*
Y555058D01*
X677488Y557642D01*
X676150Y559958D01*
X674258Y561850D01*
X671942Y563188D01*
X669358Y563880D01*
D02*
G37*
G36*
X666750D02*
X666682D01*
X664098Y563188D01*
X661782Y561850D01*
X659890Y559958D01*
X658552Y557642D01*
X657860Y555058D01*
Y554990D01*
X666750D01*
Y563880D01*
D02*
G37*
G36*
X678180Y552450D02*
X669290D01*
Y543560D01*
X669358D01*
X671942Y544252D01*
X674258Y545590D01*
X676150Y547482D01*
X677488Y549798D01*
X678180Y552382D01*
Y552450D01*
D02*
G37*
G36*
X666750D02*
X657860D01*
Y552382D01*
X658552Y549798D01*
X659890Y547482D01*
X661782Y545590D01*
X664098Y544252D01*
X666682Y543560D01*
X666750D01*
Y552450D01*
D02*
G37*
G36*
X643958Y563880D02*
X641282D01*
X638698Y563188D01*
X636382Y561850D01*
X634490Y559958D01*
X633152Y557642D01*
X632460Y555058D01*
Y552382D01*
X633152Y549798D01*
X634490Y547482D01*
X636382Y545590D01*
X638698Y544252D01*
X641282Y543560D01*
X643958D01*
X646542Y544252D01*
X648858Y545590D01*
X650750Y547482D01*
X652088Y549798D01*
X652780Y552382D01*
Y555058D01*
X652088Y557642D01*
X650750Y559958D01*
X648858Y561850D01*
X646542Y563188D01*
X643958Y563880D01*
D02*
G37*
G36*
X618558D02*
X615882D01*
X613298Y563188D01*
X610982Y561850D01*
X609090Y559958D01*
X607752Y557642D01*
X607060Y555058D01*
Y552382D01*
X607752Y549798D01*
X609090Y547482D01*
X610982Y545590D01*
X613298Y544252D01*
X615882Y543560D01*
X618558D01*
X621142Y544252D01*
X623458Y545590D01*
X625350Y547482D01*
X626688Y549798D01*
X627380Y552382D01*
Y555058D01*
X626688Y557642D01*
X625350Y559958D01*
X623458Y561850D01*
X621142Y563188D01*
X618558Y563880D01*
D02*
G37*
G36*
X593158D02*
X590482D01*
X587898Y563188D01*
X585582Y561850D01*
X583690Y559958D01*
X582352Y557642D01*
X581660Y555058D01*
Y552382D01*
X582352Y549798D01*
X583690Y547482D01*
X585582Y545590D01*
X587898Y544252D01*
X590482Y543560D01*
X593158D01*
X595742Y544252D01*
X598058Y545590D01*
X599950Y547482D01*
X601288Y549798D01*
X601980Y552382D01*
Y555058D01*
X601288Y557642D01*
X599950Y559958D01*
X598058Y561850D01*
X595742Y563188D01*
X593158Y563880D01*
D02*
G37*
G36*
X567758D02*
X565082D01*
X562498Y563188D01*
X560182Y561850D01*
X558290Y559958D01*
X556952Y557642D01*
X556260Y555058D01*
Y552382D01*
X556952Y549798D01*
X558290Y547482D01*
X560182Y545590D01*
X562498Y544252D01*
X565082Y543560D01*
X567758D01*
X570342Y544252D01*
X572658Y545590D01*
X574550Y547482D01*
X575888Y549798D01*
X576580Y552382D01*
Y555058D01*
X575888Y557642D01*
X574550Y559958D01*
X572658Y561850D01*
X570342Y563188D01*
X567758Y563880D01*
D02*
G37*
G36*
X542358D02*
X539682D01*
X537098Y563188D01*
X534782Y561850D01*
X532890Y559958D01*
X531552Y557642D01*
X530860Y555058D01*
Y552382D01*
X531552Y549798D01*
X532890Y547482D01*
X534782Y545590D01*
X537098Y544252D01*
X539682Y543560D01*
X542358D01*
X544942Y544252D01*
X547258Y545590D01*
X549150Y547482D01*
X550488Y549798D01*
X551180Y552382D01*
Y555058D01*
X550488Y557642D01*
X549150Y559958D01*
X547258Y561850D01*
X544942Y563188D01*
X542358Y563880D01*
D02*
G37*
G36*
X376155Y501650D02*
X375920D01*
Y491490D01*
X386080D01*
Y491725D01*
X385301Y494632D01*
X383796Y497238D01*
X381668Y499366D01*
X379062Y500871D01*
X376155Y501650D01*
D02*
G37*
G36*
X373380D02*
X373145D01*
X370238Y500871D01*
X367632Y499366D01*
X365504Y497238D01*
X363999Y494632D01*
X363220Y491725D01*
Y491490D01*
X373380D01*
Y501650D01*
D02*
G37*
G36*
X350755D02*
X350520D01*
Y491490D01*
X360680D01*
Y491725D01*
X359901Y494632D01*
X358396Y497238D01*
X356268Y499366D01*
X353662Y500871D01*
X350755Y501650D01*
D02*
G37*
G36*
X347980D02*
X347745D01*
X344838Y500871D01*
X342232Y499366D01*
X340104Y497238D01*
X338599Y494632D01*
X337820Y491725D01*
Y491490D01*
X347980D01*
Y501650D01*
D02*
G37*
G36*
X325355D02*
X325120D01*
Y491490D01*
X335280D01*
Y491725D01*
X334501Y494632D01*
X332996Y497238D01*
X330868Y499366D01*
X328262Y500871D01*
X325355Y501650D01*
D02*
G37*
G36*
X322580D02*
X322345D01*
X319438Y500871D01*
X316832Y499366D01*
X314704Y497238D01*
X313199Y494632D01*
X312420Y491725D01*
Y491490D01*
X322580D01*
Y501650D01*
D02*
G37*
G36*
X220980Y492070D02*
Y487680D01*
X225370D01*
X224555Y489647D01*
X222947Y491255D01*
X220980Y492070D01*
D02*
G37*
G36*
X218440D02*
X216473Y491255D01*
X214865Y489647D01*
X214050Y487680D01*
X218440D01*
Y492070D01*
D02*
G37*
G36*
X276860Y490800D02*
Y486410D01*
X281250D01*
X280435Y488377D01*
X278827Y489985D01*
X276860Y490800D01*
D02*
G37*
G36*
X274320D02*
X272353Y489985D01*
X270745Y488377D01*
X269930Y486410D01*
X274320D01*
Y490800D01*
D02*
G37*
G36*
X225370Y485140D02*
X220980D01*
Y480750D01*
X222947Y481565D01*
X224555Y483173D01*
X225370Y485140D01*
D02*
G37*
G36*
X218440D02*
X214050D01*
X214865Y483173D01*
X216473Y481565D01*
X218440Y480750D01*
Y485140D01*
D02*
G37*
G36*
X281250Y483870D02*
X276860D01*
Y479480D01*
X278827Y480295D01*
X280435Y481903D01*
X281250Y483870D01*
D02*
G37*
G36*
X274320D02*
X269930D01*
X270745Y481903D01*
X272353Y480295D01*
X274320Y479480D01*
Y483870D01*
D02*
G37*
G36*
X386080Y488950D02*
X375920D01*
Y478790D01*
X376155D01*
X379062Y479569D01*
X381668Y481074D01*
X383796Y483202D01*
X385301Y485808D01*
X386080Y488715D01*
Y488950D01*
D02*
G37*
G36*
X373380D02*
X363220D01*
Y488715D01*
X363999Y485808D01*
X365504Y483202D01*
X367632Y481074D01*
X370238Y479569D01*
X373145Y478790D01*
X373380D01*
Y488950D01*
D02*
G37*
G36*
X360680D02*
X350520D01*
Y478790D01*
X350755D01*
X353662Y479569D01*
X356268Y481074D01*
X358396Y483202D01*
X359901Y485808D01*
X360680Y488715D01*
Y488950D01*
D02*
G37*
G36*
X347980D02*
X337820D01*
Y488715D01*
X338599Y485808D01*
X340104Y483202D01*
X342232Y481074D01*
X344838Y479569D01*
X347745Y478790D01*
X347980D01*
Y488950D01*
D02*
G37*
G36*
X335280D02*
X325120D01*
Y478790D01*
X325355D01*
X328262Y479569D01*
X330868Y481074D01*
X332996Y483202D01*
X334501Y485808D01*
X335280Y488715D01*
Y488950D01*
D02*
G37*
G36*
X322580D02*
X312420D01*
Y488715D01*
X313199Y485808D01*
X314704Y483202D01*
X316832Y481074D01*
X319438Y479569D01*
X322345Y478790D01*
X322580D01*
Y488950D01*
D02*
G37*
G36*
X299955Y501650D02*
X296945D01*
X294038Y500871D01*
X291432Y499366D01*
X289304Y497238D01*
X287799Y494632D01*
X287020Y491725D01*
Y488715D01*
X287799Y485808D01*
X289304Y483202D01*
X291432Y481074D01*
X294038Y479569D01*
X296945Y478790D01*
X299955D01*
X302862Y479569D01*
X305468Y481074D01*
X307596Y483202D01*
X309101Y485808D01*
X309880Y488715D01*
Y491725D01*
X309101Y494632D01*
X307596Y497238D01*
X305468Y499366D01*
X302862Y500871D01*
X299955Y501650D01*
D02*
G37*
G36*
X567758Y492760D02*
X565082D01*
X562498Y492068D01*
X560182Y490730D01*
X558290Y488838D01*
X556952Y486522D01*
X556260Y483938D01*
Y481262D01*
X556952Y478678D01*
X558290Y476362D01*
X560182Y474470D01*
X562498Y473132D01*
X565082Y472440D01*
X567758D01*
X570342Y473132D01*
X572658Y474470D01*
X574550Y476362D01*
X575888Y478678D01*
X576580Y481262D01*
Y483938D01*
X575888Y486522D01*
X574550Y488838D01*
X572658Y490730D01*
X570342Y492068D01*
X567758Y492760D01*
D02*
G37*
G36*
Y467360D02*
X565082D01*
X562498Y466668D01*
X560182Y465330D01*
X558290Y463438D01*
X556952Y461122D01*
X556260Y458538D01*
Y455862D01*
X556952Y453278D01*
X558290Y450962D01*
X560182Y449070D01*
X562498Y447732D01*
X565082Y447040D01*
X567758D01*
X570342Y447732D01*
X572658Y449070D01*
X574550Y450962D01*
X575888Y453278D01*
X576580Y455862D01*
Y458538D01*
X575888Y461122D01*
X574550Y463438D01*
X572658Y465330D01*
X570342Y466668D01*
X567758Y467360D01*
D02*
G37*
G36*
X643958Y441960D02*
X643890D01*
Y433070D01*
X652780D01*
Y433138D01*
X652088Y435722D01*
X650750Y438038D01*
X648858Y439930D01*
X646542Y441268D01*
X643958Y441960D01*
D02*
G37*
G36*
X641350D02*
X641282D01*
X638698Y441268D01*
X636382Y439930D01*
X634490Y438038D01*
X633152Y435722D01*
X632460Y433138D01*
Y433070D01*
X641350D01*
Y441960D01*
D02*
G37*
G36*
X652780Y430530D02*
X643890D01*
Y421640D01*
X643958D01*
X646542Y422332D01*
X648858Y423670D01*
X650750Y425562D01*
X652088Y427878D01*
X652780Y430462D01*
Y430530D01*
D02*
G37*
G36*
X641350D02*
X632460D01*
Y430462D01*
X633152Y427878D01*
X634490Y425562D01*
X636382Y423670D01*
X638698Y422332D01*
X641282Y421640D01*
X641350D01*
Y430530D01*
D02*
G37*
G36*
X567758Y441960D02*
X565082D01*
X562498Y441268D01*
X560182Y439930D01*
X558290Y438038D01*
X556952Y435722D01*
X556260Y433138D01*
Y430462D01*
X556952Y427878D01*
X558290Y425562D01*
X560182Y423670D01*
X562498Y422332D01*
X565082Y421640D01*
X567758D01*
X570342Y422332D01*
X572658Y423670D01*
X574550Y425562D01*
X575888Y427878D01*
X576580Y430462D01*
Y433138D01*
X575888Y435722D01*
X574550Y438038D01*
X572658Y439930D01*
X570342Y441268D01*
X567758Y441960D01*
D02*
G37*
G36*
X267970Y419680D02*
Y415290D01*
X272360D01*
X271545Y417257D01*
X269937Y418865D01*
X267970Y419680D01*
D02*
G37*
G36*
X265430D02*
X263463Y418865D01*
X261855Y417257D01*
X261040Y415290D01*
X265430D01*
Y419680D01*
D02*
G37*
G36*
X272360Y412750D02*
X267970D01*
Y408360D01*
X269937Y409175D01*
X271545Y410783D01*
X272360Y412750D01*
D02*
G37*
G36*
X265430D02*
X261040D01*
X261855Y410783D01*
X263463Y409175D01*
X265430Y408360D01*
Y412750D01*
D02*
G37*
G36*
X567758Y416560D02*
X567690D01*
Y407670D01*
X576580D01*
Y407738D01*
X575888Y410322D01*
X574550Y412638D01*
X572658Y414530D01*
X570342Y415868D01*
X567758Y416560D01*
D02*
G37*
G36*
X565150D02*
X565082D01*
X562498Y415868D01*
X560182Y414530D01*
X558290Y412638D01*
X556952Y410322D01*
X556260Y407738D01*
Y407670D01*
X565150D01*
Y416560D01*
D02*
G37*
G36*
X201930Y408250D02*
Y403860D01*
X206320D01*
X205505Y405827D01*
X203897Y407435D01*
X201930Y408250D01*
D02*
G37*
G36*
X199390D02*
X197423Y407435D01*
X195815Y405827D01*
X195000Y403860D01*
X199390D01*
Y408250D01*
D02*
G37*
G36*
X206320Y401320D02*
X201930D01*
Y396930D01*
X203897Y397745D01*
X205505Y399353D01*
X206320Y401320D01*
D02*
G37*
G36*
X199390D02*
X195000D01*
X195815Y399353D01*
X197423Y397745D01*
X199390Y396930D01*
Y401320D01*
D02*
G37*
G36*
X643958Y416560D02*
X641282D01*
X638698Y415868D01*
X636382Y414530D01*
X634490Y412638D01*
X633152Y410322D01*
X632460Y407738D01*
Y405062D01*
X633152Y402478D01*
X634490Y400162D01*
X636382Y398270D01*
X638698Y396932D01*
X641282Y396240D01*
X643958D01*
X646542Y396932D01*
X648858Y398270D01*
X650750Y400162D01*
X652088Y402478D01*
X652780Y405062D01*
Y407738D01*
X652088Y410322D01*
X650750Y412638D01*
X648858Y414530D01*
X646542Y415868D01*
X643958Y416560D01*
D02*
G37*
G36*
X576580Y405130D02*
X567690D01*
Y396240D01*
X567758D01*
X570342Y396932D01*
X572658Y398270D01*
X574550Y400162D01*
X575888Y402478D01*
X576580Y405062D01*
Y405130D01*
D02*
G37*
G36*
X565150D02*
X556260D01*
Y405062D01*
X556952Y402478D01*
X558290Y400162D01*
X560182Y398270D01*
X562498Y396932D01*
X565082Y396240D01*
X565150D01*
Y405130D01*
D02*
G37*
G36*
X483870Y386660D02*
Y382270D01*
X488260D01*
X487445Y384237D01*
X485837Y385845D01*
X483870Y386660D01*
D02*
G37*
G36*
X481330D02*
X479363Y385845D01*
X477755Y384237D01*
X476940Y382270D01*
X481330D01*
Y386660D01*
D02*
G37*
G36*
X85158Y401320D02*
X82482D01*
X79898Y400628D01*
X77582Y399290D01*
X75690Y397398D01*
X74352Y395082D01*
X73660Y392498D01*
Y389822D01*
X74352Y387238D01*
X75690Y384922D01*
X77582Y383030D01*
X79898Y381692D01*
X82482Y381000D01*
X85158D01*
X87742Y381692D01*
X90058Y383030D01*
X91950Y384922D01*
X93288Y387238D01*
X93980Y389822D01*
Y392498D01*
X93288Y395082D01*
X91950Y397398D01*
X90058Y399290D01*
X87742Y400628D01*
X85158Y401320D01*
D02*
G37*
G36*
X488260Y379730D02*
X483870D01*
Y375340D01*
X485837Y376155D01*
X487445Y377763D01*
X488260Y379730D01*
D02*
G37*
G36*
X481330D02*
X476940D01*
X477755Y377763D01*
X479363Y376155D01*
X481330Y375340D01*
Y379730D01*
D02*
G37*
G36*
X643958Y391160D02*
X641282D01*
X638698Y390468D01*
X636382Y389130D01*
X634490Y387238D01*
X633152Y384922D01*
X632460Y382338D01*
Y379662D01*
X633152Y377078D01*
X634490Y374762D01*
X636382Y372870D01*
X638698Y371532D01*
X641282Y370840D01*
X643958D01*
X646542Y371532D01*
X648858Y372870D01*
X650750Y374762D01*
X652088Y377078D01*
X652780Y379662D01*
Y382338D01*
X652088Y384922D01*
X650750Y387238D01*
X648858Y389130D01*
X646542Y390468D01*
X643958Y391160D01*
D02*
G37*
G36*
X567758D02*
X565082D01*
X562498Y390468D01*
X560182Y389130D01*
X558290Y387238D01*
X556952Y384922D01*
X556260Y382338D01*
Y379662D01*
X556952Y377078D01*
X558290Y374762D01*
X560182Y372870D01*
X562498Y371532D01*
X565082Y370840D01*
X567758D01*
X570342Y371532D01*
X572658Y372870D01*
X574550Y374762D01*
X575888Y377078D01*
X576580Y379662D01*
Y382338D01*
X575888Y384922D01*
X574550Y387238D01*
X572658Y389130D01*
X570342Y390468D01*
X567758Y391160D01*
D02*
G37*
G36*
X184150Y368880D02*
Y364490D01*
X188540D01*
X187725Y366457D01*
X186117Y368065D01*
X184150Y368880D01*
D02*
G37*
G36*
X181610D02*
X179643Y368065D01*
X178035Y366457D01*
X177220Y364490D01*
X181610D01*
Y368880D01*
D02*
G37*
G36*
X188540Y361950D02*
X184150D01*
Y357560D01*
X186117Y358375D01*
X187725Y359983D01*
X188540Y361950D01*
D02*
G37*
G36*
X181610D02*
X177220D01*
X178035Y359983D01*
X179643Y358375D01*
X181610Y357560D01*
Y361950D01*
D02*
G37*
G36*
X85158Y375920D02*
X82482D01*
X79898Y375228D01*
X77582Y373890D01*
X75690Y371998D01*
X74352Y369682D01*
X73660Y367098D01*
Y364422D01*
X74352Y361838D01*
X75690Y359522D01*
X77582Y357630D01*
X79898Y356292D01*
X82482Y355600D01*
X85158D01*
X87742Y356292D01*
X90058Y357630D01*
X91950Y359522D01*
X93288Y361838D01*
X93980Y364422D01*
Y367098D01*
X93288Y369682D01*
X91950Y371998D01*
X90058Y373890D01*
X87742Y375228D01*
X85158Y375920D01*
D02*
G37*
G36*
X353060Y354910D02*
Y350520D01*
X357450D01*
X356635Y352487D01*
X355027Y354095D01*
X353060Y354910D01*
D02*
G37*
G36*
X350520D02*
X348553Y354095D01*
X346945Y352487D01*
X346130Y350520D01*
X350520D01*
Y354910D01*
D02*
G37*
G36*
X643958Y365760D02*
X641282D01*
X638698Y365068D01*
X636382Y363730D01*
X634490Y361838D01*
X633152Y359522D01*
X632460Y356938D01*
Y354262D01*
X633152Y351678D01*
X634490Y349362D01*
X636382Y347470D01*
X638698Y346132D01*
X641282Y345440D01*
X643958D01*
X646542Y346132D01*
X648858Y347470D01*
X650750Y349362D01*
X652088Y351678D01*
X652780Y354262D01*
Y356938D01*
X652088Y359522D01*
X650750Y361838D01*
X648858Y363730D01*
X646542Y365068D01*
X643958Y365760D01*
D02*
G37*
G36*
X567758D02*
X565082D01*
X562498Y365068D01*
X560182Y363730D01*
X558290Y361838D01*
X556952Y359522D01*
X556260Y356938D01*
Y354262D01*
X556952Y351678D01*
X558290Y349362D01*
X560182Y347470D01*
X562498Y346132D01*
X565082Y345440D01*
X567758D01*
X570342Y346132D01*
X572658Y347470D01*
X574550Y349362D01*
X575888Y351678D01*
X576580Y354262D01*
Y356938D01*
X575888Y359522D01*
X574550Y361838D01*
X572658Y363730D01*
X570342Y365068D01*
X567758Y365760D01*
D02*
G37*
G36*
X357450Y347980D02*
X353060D01*
Y343590D01*
X355027Y344405D01*
X356635Y346013D01*
X357450Y347980D01*
D02*
G37*
G36*
X350520D02*
X346130D01*
X346945Y346013D01*
X348553Y344405D01*
X350520Y343590D01*
Y347980D01*
D02*
G37*
G36*
X85158Y350520D02*
X82482D01*
X79898Y349828D01*
X77582Y348490D01*
X75690Y346598D01*
X74352Y344282D01*
X73660Y341698D01*
Y339022D01*
X74352Y336438D01*
X75690Y334122D01*
X77582Y332230D01*
X79898Y330892D01*
X82482Y330200D01*
X85158D01*
X87742Y330892D01*
X90058Y332230D01*
X91950Y334122D01*
X93288Y336438D01*
X93980Y339022D01*
Y341698D01*
X93288Y344282D01*
X91950Y346598D01*
X90058Y348490D01*
X87742Y349828D01*
X85158Y350520D01*
D02*
G37*
G36*
X643958Y340360D02*
X641282D01*
X638698Y339668D01*
X636382Y338330D01*
X634490Y336438D01*
X633152Y334122D01*
X632460Y331538D01*
Y328862D01*
X633152Y326278D01*
X634490Y323962D01*
X636382Y322070D01*
X638698Y320732D01*
X641282Y320040D01*
X643958D01*
X646542Y320732D01*
X648858Y322070D01*
X650750Y323962D01*
X652088Y326278D01*
X652780Y328862D01*
Y331538D01*
X652088Y334122D01*
X650750Y336438D01*
X648858Y338330D01*
X646542Y339668D01*
X643958Y340360D01*
D02*
G37*
G36*
X567758D02*
X565082D01*
X562498Y339668D01*
X560182Y338330D01*
X558290Y336438D01*
X556952Y334122D01*
X556260Y331538D01*
Y328862D01*
X556952Y326278D01*
X558290Y323962D01*
X560182Y322070D01*
X562498Y320732D01*
X565082Y320040D01*
X567758D01*
X570342Y320732D01*
X572658Y322070D01*
X574550Y323962D01*
X575888Y326278D01*
X576580Y328862D01*
Y331538D01*
X575888Y334122D01*
X574550Y336438D01*
X572658Y338330D01*
X570342Y339668D01*
X567758Y340360D01*
D02*
G37*
G36*
X85158Y325120D02*
X82482D01*
X79898Y324428D01*
X77582Y323090D01*
X75690Y321198D01*
X74352Y318882D01*
X73660Y316298D01*
Y313622D01*
X74352Y311038D01*
X75690Y308722D01*
X77582Y306830D01*
X79898Y305492D01*
X82482Y304800D01*
X85158D01*
X87742Y305492D01*
X90058Y306830D01*
X91950Y308722D01*
X93288Y311038D01*
X93980Y313622D01*
Y316298D01*
X93288Y318882D01*
X91950Y321198D01*
X90058Y323090D01*
X87742Y324428D01*
X85158Y325120D01*
D02*
G37*
G36*
X643958Y314960D02*
X641282D01*
X638698Y314268D01*
X636382Y312930D01*
X634490Y311038D01*
X633152Y308722D01*
X632460Y306138D01*
Y303462D01*
X633152Y300878D01*
X634490Y298562D01*
X636382Y296670D01*
X638698Y295332D01*
X641282Y294640D01*
X643958D01*
X646542Y295332D01*
X648858Y296670D01*
X650750Y298562D01*
X652088Y300878D01*
X652780Y303462D01*
Y306138D01*
X652088Y308722D01*
X650750Y311038D01*
X648858Y312930D01*
X646542Y314268D01*
X643958Y314960D01*
D02*
G37*
G36*
X567758D02*
X565082D01*
X562498Y314268D01*
X560182Y312930D01*
X558290Y311038D01*
X556952Y308722D01*
X556260Y306138D01*
Y303462D01*
X556952Y300878D01*
X558290Y298562D01*
X560182Y296670D01*
X562498Y295332D01*
X565082Y294640D01*
X567758D01*
X570342Y295332D01*
X572658Y296670D01*
X574550Y298562D01*
X575888Y300878D01*
X576580Y303462D01*
Y306138D01*
X575888Y308722D01*
X574550Y311038D01*
X572658Y312930D01*
X570342Y314268D01*
X567758Y314960D01*
D02*
G37*
G36*
X398780Y296490D02*
Y292100D01*
X403170D01*
X402355Y294067D01*
X400747Y295675D01*
X398780Y296490D01*
D02*
G37*
G36*
X396240D02*
X394273Y295675D01*
X392665Y294067D01*
X391850Y292100D01*
X396240D01*
Y296490D01*
D02*
G37*
G36*
X307340Y295220D02*
Y290830D01*
X311730D01*
X310915Y292797D01*
X309307Y294405D01*
X307340Y295220D01*
D02*
G37*
G36*
X304800D02*
X302833Y294405D01*
X301225Y292797D01*
X300410Y290830D01*
X304800D01*
Y295220D01*
D02*
G37*
G36*
X403170Y289560D02*
X398780D01*
Y285170D01*
X400747Y285985D01*
X402355Y287593D01*
X403170Y289560D01*
D02*
G37*
G36*
X396240D02*
X391850D01*
X392665Y287593D01*
X394273Y285985D01*
X396240Y285170D01*
Y289560D01*
D02*
G37*
G36*
X311730Y288290D02*
X307340D01*
Y283900D01*
X309307Y284715D01*
X310915Y286323D01*
X311730Y288290D01*
D02*
G37*
G36*
X304800D02*
X300410D01*
X301225Y286323D01*
X302833Y284715D01*
X304800Y283900D01*
Y288290D01*
D02*
G37*
G36*
X85158Y299720D02*
X82482D01*
X79898Y299028D01*
X77582Y297690D01*
X75690Y295798D01*
X74352Y293482D01*
X73660Y290898D01*
Y288222D01*
X74352Y285638D01*
X75690Y283322D01*
X77582Y281430D01*
X79898Y280092D01*
X82482Y279400D01*
X85158D01*
X87742Y280092D01*
X90058Y281430D01*
X91950Y283322D01*
X93288Y285638D01*
X93980Y288222D01*
Y290898D01*
X93288Y293482D01*
X91950Y295798D01*
X90058Y297690D01*
X87742Y299028D01*
X85158Y299720D01*
D02*
G37*
G36*
X34525Y300990D02*
X31515D01*
X28608Y300211D01*
X26002Y298706D01*
X23874Y296578D01*
X22369Y293972D01*
X21590Y291065D01*
Y288055D01*
X22369Y285148D01*
X23874Y282542D01*
X26002Y280414D01*
X28608Y278909D01*
X31515Y278130D01*
X34525D01*
X37432Y278909D01*
X40038Y280414D01*
X42166Y282542D01*
X43671Y285148D01*
X44450Y288055D01*
Y291065D01*
X43671Y293972D01*
X42166Y296578D01*
X40038Y298706D01*
X37432Y300211D01*
X34525Y300990D01*
D02*
G37*
G36*
X567758Y289560D02*
X565082D01*
X562498Y288868D01*
X560182Y287530D01*
X558290Y285638D01*
X556952Y283322D01*
X556260Y280738D01*
Y278062D01*
X556952Y275478D01*
X558290Y273162D01*
X560182Y271270D01*
X562498Y269932D01*
X565082Y269240D01*
X567758D01*
X570342Y269932D01*
X572658Y271270D01*
X574550Y273162D01*
X575888Y275478D01*
X576580Y278062D01*
Y280738D01*
X575888Y283322D01*
X574550Y285638D01*
X572658Y287530D01*
X570342Y288868D01*
X567758Y289560D01*
D02*
G37*
G36*
X85158Y274320D02*
X85090D01*
Y265430D01*
X93980D01*
Y265498D01*
X93288Y268082D01*
X91950Y270398D01*
X90058Y272290D01*
X87742Y273628D01*
X85158Y274320D01*
D02*
G37*
G36*
X34525Y275590D02*
X34290D01*
Y265430D01*
X44450D01*
Y265665D01*
X43671Y268572D01*
X42166Y271178D01*
X40038Y273306D01*
X37432Y274811D01*
X34525Y275590D01*
D02*
G37*
G36*
X31750D02*
X31515D01*
X28608Y274811D01*
X26002Y273306D01*
X23874Y271178D01*
X22369Y268572D01*
X21590Y265665D01*
Y265430D01*
X31750D01*
Y275590D01*
D02*
G37*
G36*
X82550Y274320D02*
X82482D01*
X79898Y273628D01*
X77582Y272290D01*
X75690Y270398D01*
X74352Y268082D01*
X73660Y265498D01*
Y265430D01*
X82550D01*
Y274320D01*
D02*
G37*
G36*
X267970Y259660D02*
Y255270D01*
X272360D01*
X271545Y257237D01*
X269937Y258845D01*
X267970Y259660D01*
D02*
G37*
G36*
X265430D02*
X263463Y258845D01*
X261855Y257237D01*
X261040Y255270D01*
X265430D01*
Y259660D01*
D02*
G37*
G36*
X93980Y262890D02*
X85090D01*
Y254000D01*
X85158D01*
X87742Y254692D01*
X90058Y256030D01*
X91950Y257922D01*
X93288Y260238D01*
X93980Y262822D01*
Y262890D01*
D02*
G37*
G36*
X82550D02*
X73660D01*
Y262822D01*
X74352Y260238D01*
X75690Y257922D01*
X77582Y256030D01*
X79898Y254692D01*
X82482Y254000D01*
X82550D01*
Y262890D01*
D02*
G37*
G36*
X44450D02*
X34290D01*
Y252730D01*
X34525D01*
X37432Y253509D01*
X40038Y255014D01*
X42166Y257142D01*
X43671Y259748D01*
X44450Y262655D01*
Y262890D01*
D02*
G37*
G36*
X31750D02*
X21590D01*
Y262655D01*
X22369Y259748D01*
X23874Y257142D01*
X26002Y255014D01*
X28608Y253509D01*
X31515Y252730D01*
X31750D01*
Y262890D01*
D02*
G37*
G36*
X272360Y252730D02*
X267970D01*
Y248340D01*
X269937Y249155D01*
X271545Y250763D01*
X272360Y252730D01*
D02*
G37*
G36*
X265430D02*
X261040D01*
X261855Y250763D01*
X263463Y249155D01*
X265430Y248340D01*
Y252730D01*
D02*
G37*
G36*
X567758Y264160D02*
X565082D01*
X562498Y263468D01*
X560182Y262130D01*
X558290Y260238D01*
X556952Y257922D01*
X556260Y255338D01*
Y252662D01*
X556952Y250078D01*
X558290Y247762D01*
X560182Y245870D01*
X562498Y244532D01*
X565082Y243840D01*
X567758D01*
X570342Y244532D01*
X572658Y245870D01*
X574550Y247762D01*
X575888Y250078D01*
X576580Y252662D01*
Y255338D01*
X575888Y257922D01*
X574550Y260238D01*
X572658Y262130D01*
X570342Y263468D01*
X567758Y264160D01*
D02*
G37*
G36*
X85158Y248920D02*
X85090D01*
Y240030D01*
X93980D01*
Y240098D01*
X93288Y242682D01*
X91950Y244998D01*
X90058Y246890D01*
X87742Y248228D01*
X85158Y248920D01*
D02*
G37*
G36*
X34525Y250190D02*
X34290D01*
Y240030D01*
X44450D01*
Y240265D01*
X43671Y243172D01*
X42166Y245778D01*
X40038Y247906D01*
X37432Y249411D01*
X34525Y250190D01*
D02*
G37*
G36*
X31750D02*
X31515D01*
X28608Y249411D01*
X26002Y247906D01*
X23874Y245778D01*
X22369Y243172D01*
X21590Y240265D01*
Y240030D01*
X31750D01*
Y250190D01*
D02*
G37*
G36*
X82550Y248920D02*
X82482D01*
X79898Y248228D01*
X77582Y246890D01*
X75690Y244998D01*
X74352Y242682D01*
X73660Y240098D01*
Y240030D01*
X82550D01*
Y248920D01*
D02*
G37*
G36*
X466241Y254630D02*
X463400D01*
X460655Y253895D01*
X458195Y252474D01*
X456186Y250465D01*
X454765Y248005D01*
X454030Y245261D01*
Y242419D01*
X454765Y239675D01*
X456186Y237215D01*
X458195Y235206D01*
X460655Y233785D01*
X463400Y233050D01*
X466241D01*
X468985Y233785D01*
X471445Y235206D01*
X473454Y237215D01*
X474875Y239675D01*
X475610Y242419D01*
Y245261D01*
X474875Y248005D01*
X473454Y250465D01*
X471445Y252474D01*
X468985Y253895D01*
X466241Y254630D01*
D02*
G37*
G36*
X214781Y241930D02*
X214630D01*
Y232410D01*
X224150D01*
Y232561D01*
X223415Y235305D01*
X221994Y237765D01*
X219985Y239774D01*
X217525Y241195D01*
X214781Y241930D01*
D02*
G37*
G36*
X212090D02*
X211940D01*
X209195Y241195D01*
X206735Y239774D01*
X204726Y237765D01*
X203305Y235305D01*
X202570Y232561D01*
Y232410D01*
X212090D01*
Y241930D01*
D02*
G37*
G36*
X93980Y237490D02*
X85090D01*
Y228600D01*
X85158D01*
X87742Y229292D01*
X90058Y230630D01*
X91950Y232522D01*
X93288Y234838D01*
X93980Y237422D01*
Y237490D01*
D02*
G37*
G36*
X82550D02*
X73660D01*
Y237422D01*
X74352Y234838D01*
X75690Y232522D01*
X77582Y230630D01*
X79898Y229292D01*
X82482Y228600D01*
X82550D01*
Y237490D01*
D02*
G37*
G36*
X44450D02*
X34290D01*
Y227330D01*
X34525D01*
X37432Y228109D01*
X40038Y229614D01*
X42166Y231742D01*
X43671Y234348D01*
X44450Y237255D01*
Y237490D01*
D02*
G37*
G36*
X31750D02*
X21590D01*
Y237255D01*
X22369Y234348D01*
X23874Y231742D01*
X26002Y229614D01*
X28608Y228109D01*
X31515Y227330D01*
X31750D01*
Y237490D01*
D02*
G37*
G36*
X224150Y229870D02*
X214630D01*
Y220350D01*
X214781D01*
X217525Y221085D01*
X219985Y222506D01*
X221994Y224515D01*
X223415Y226975D01*
X224150Y229720D01*
Y229870D01*
D02*
G37*
G36*
X212090D02*
X202570D01*
Y229720D01*
X203305Y226975D01*
X204726Y224515D01*
X206735Y222506D01*
X209195Y221085D01*
X211940Y220350D01*
X212090D01*
Y229870D01*
D02*
G37*
G36*
X189380Y241930D02*
X186539D01*
X183795Y241195D01*
X181335Y239774D01*
X179326Y237765D01*
X177905Y235305D01*
X177170Y232561D01*
Y229720D01*
X177905Y226975D01*
X179326Y224515D01*
X181335Y222506D01*
X183795Y221085D01*
X186539Y220350D01*
X189380D01*
X192125Y221085D01*
X194585Y222506D01*
X196594Y224515D01*
X198015Y226975D01*
X198750Y229720D01*
Y232561D01*
X198015Y235305D01*
X196594Y237765D01*
X194585Y239774D01*
X192125Y241195D01*
X189380Y241930D01*
D02*
G37*
G36*
X163981D02*
X161140D01*
X158395Y241195D01*
X155935Y239774D01*
X153926Y237765D01*
X152505Y235305D01*
X151770Y232561D01*
Y229720D01*
X152505Y226975D01*
X153926Y224515D01*
X155935Y222506D01*
X158395Y221085D01*
X161140Y220350D01*
X163981D01*
X166725Y221085D01*
X169185Y222506D01*
X171194Y224515D01*
X172615Y226975D01*
X173350Y229720D01*
Y232561D01*
X172615Y235305D01*
X171194Y237765D01*
X169185Y239774D01*
X166725Y241195D01*
X163981Y241930D01*
D02*
G37*
G36*
X34525Y224790D02*
X34290D01*
Y214630D01*
X44450D01*
Y214865D01*
X43671Y217772D01*
X42166Y220378D01*
X40038Y222506D01*
X37432Y224011D01*
X34525Y224790D01*
D02*
G37*
G36*
X31750D02*
X31515D01*
X28608Y224011D01*
X26002Y222506D01*
X23874Y220378D01*
X22369Y217772D01*
X21590Y214865D01*
Y214630D01*
X31750D01*
Y224790D01*
D02*
G37*
G36*
X466241Y229230D02*
X463400D01*
X460655Y228495D01*
X458195Y227074D01*
X456186Y225065D01*
X454765Y222605D01*
X454030Y219860D01*
Y217020D01*
X454765Y214275D01*
X456186Y211815D01*
X458195Y209806D01*
X460655Y208385D01*
X463400Y207650D01*
X466241D01*
X468985Y208385D01*
X471445Y209806D01*
X473454Y211815D01*
X474875Y214275D01*
X475610Y217020D01*
Y219860D01*
X474875Y222605D01*
X473454Y225065D01*
X471445Y227074D01*
X468985Y228495D01*
X466241Y229230D01*
D02*
G37*
G36*
X567758Y223520D02*
X565082D01*
X562498Y222828D01*
X560182Y221490D01*
X558290Y219598D01*
X556952Y217282D01*
X556260Y214698D01*
Y212022D01*
X556952Y209438D01*
X558290Y207122D01*
X560182Y205230D01*
X562498Y203892D01*
X565082Y203200D01*
X567758D01*
X570342Y203892D01*
X572658Y205230D01*
X574550Y207122D01*
X575888Y209438D01*
X576580Y212022D01*
Y214698D01*
X575888Y217282D01*
X574550Y219598D01*
X572658Y221490D01*
X570342Y222828D01*
X567758Y223520D01*
D02*
G37*
G36*
X85158D02*
X82482D01*
X79898Y222828D01*
X77582Y221490D01*
X75690Y219598D01*
X74352Y217282D01*
X73660Y214698D01*
Y212022D01*
X74352Y209438D01*
X75690Y207122D01*
X77582Y205230D01*
X79898Y203892D01*
X82482Y203200D01*
X85158D01*
X87742Y203892D01*
X90058Y205230D01*
X91950Y207122D01*
X93288Y209438D01*
X93980Y212022D01*
Y214698D01*
X93288Y217282D01*
X91950Y219598D01*
X90058Y221490D01*
X87742Y222828D01*
X85158Y223520D01*
D02*
G37*
G36*
X44450Y212090D02*
X34290D01*
Y201930D01*
X34525D01*
X37432Y202709D01*
X40038Y204214D01*
X42166Y206342D01*
X43671Y208948D01*
X44450Y211855D01*
Y212090D01*
D02*
G37*
G36*
X31750D02*
X21590D01*
Y211855D01*
X22369Y208948D01*
X23874Y206342D01*
X26002Y204214D01*
X28608Y202709D01*
X31515Y201930D01*
X31750D01*
Y212090D01*
D02*
G37*
G36*
X466241Y203830D02*
X466090D01*
Y194310D01*
X475610D01*
Y194461D01*
X474875Y197205D01*
X473454Y199665D01*
X471445Y201674D01*
X468985Y203095D01*
X466241Y203830D01*
D02*
G37*
G36*
X463550D02*
X463400D01*
X460655Y203095D01*
X458195Y201674D01*
X456186Y199665D01*
X454765Y197205D01*
X454030Y194461D01*
Y194310D01*
X463550D01*
Y203830D01*
D02*
G37*
G36*
X475610Y191770D02*
X466090D01*
Y182250D01*
X466241D01*
X468985Y182985D01*
X471445Y184406D01*
X473454Y186415D01*
X474875Y188875D01*
X475610Y191619D01*
Y191770D01*
D02*
G37*
G36*
X463550D02*
X454030D01*
Y191619D01*
X454765Y188875D01*
X456186Y186415D01*
X458195Y184406D01*
X460655Y182985D01*
X463400Y182250D01*
X463550D01*
Y191770D01*
D02*
G37*
G36*
X567758Y198120D02*
X565082D01*
X562498Y197428D01*
X560182Y196090D01*
X558290Y194198D01*
X556952Y191882D01*
X556260Y189298D01*
Y186622D01*
X556952Y184038D01*
X558290Y181722D01*
X560182Y179830D01*
X562498Y178492D01*
X565082Y177800D01*
X567758D01*
X570342Y178492D01*
X572658Y179830D01*
X574550Y181722D01*
X575888Y184038D01*
X576580Y186622D01*
Y189298D01*
X575888Y191882D01*
X574550Y194198D01*
X572658Y196090D01*
X570342Y197428D01*
X567758Y198120D01*
D02*
G37*
G36*
X212158Y167640D02*
X212090D01*
Y158750D01*
X220980D01*
Y158818D01*
X220288Y161402D01*
X218950Y163718D01*
X217058Y165610D01*
X214742Y166948D01*
X212158Y167640D01*
D02*
G37*
G36*
X209550D02*
X209482D01*
X206898Y166948D01*
X204582Y165610D01*
X202690Y163718D01*
X201352Y161402D01*
X200660Y158818D01*
Y158750D01*
X209550D01*
Y167640D01*
D02*
G37*
G36*
X643958Y172720D02*
X641282D01*
X638698Y172028D01*
X636382Y170690D01*
X634490Y168798D01*
X633152Y166482D01*
X632460Y163898D01*
Y161222D01*
X633152Y158638D01*
X634490Y156322D01*
X636382Y154430D01*
X638698Y153092D01*
X641282Y152400D01*
X643958D01*
X646542Y153092D01*
X648858Y154430D01*
X650750Y156322D01*
X652088Y158638D01*
X652780Y161222D01*
Y163898D01*
X652088Y166482D01*
X650750Y168798D01*
X648858Y170690D01*
X646542Y172028D01*
X643958Y172720D01*
D02*
G37*
G36*
X567758D02*
X565082D01*
X562498Y172028D01*
X560182Y170690D01*
X558290Y168798D01*
X556952Y166482D01*
X556260Y163898D01*
Y161222D01*
X556952Y158638D01*
X558290Y156322D01*
X560182Y154430D01*
X562498Y153092D01*
X565082Y152400D01*
X567758D01*
X570342Y153092D01*
X572658Y154430D01*
X574550Y156322D01*
X575888Y158638D01*
X576580Y161222D01*
Y163898D01*
X575888Y166482D01*
X574550Y168798D01*
X572658Y170690D01*
X570342Y172028D01*
X567758Y172720D01*
D02*
G37*
G36*
X85158D02*
X82482D01*
X79898Y172028D01*
X77582Y170690D01*
X75690Y168798D01*
X74352Y166482D01*
X73660Y163898D01*
Y161222D01*
X74352Y158638D01*
X75690Y156322D01*
X77582Y154430D01*
X79898Y153092D01*
X82482Y152400D01*
X85158D01*
X87742Y153092D01*
X90058Y154430D01*
X91950Y156322D01*
X93288Y158638D01*
X93980Y161222D01*
Y163898D01*
X93288Y166482D01*
X91950Y168798D01*
X90058Y170690D01*
X87742Y172028D01*
X85158Y172720D01*
D02*
G37*
G36*
X237558Y167640D02*
X234882D01*
X232298Y166948D01*
X229982Y165610D01*
X228090Y163718D01*
X226752Y161402D01*
X226060Y158818D01*
Y156142D01*
X226752Y153558D01*
X228090Y151242D01*
X229982Y149350D01*
X232298Y148012D01*
X234882Y147320D01*
X237558D01*
X240142Y148012D01*
X242458Y149350D01*
X244350Y151242D01*
X245688Y153558D01*
X246380Y156142D01*
Y158818D01*
X245688Y161402D01*
X244350Y163718D01*
X242458Y165610D01*
X240142Y166948D01*
X237558Y167640D01*
D02*
G37*
G36*
X220980Y156210D02*
X212090D01*
Y147320D01*
X212158D01*
X214742Y148012D01*
X217058Y149350D01*
X218950Y151242D01*
X220288Y153558D01*
X220980Y156142D01*
Y156210D01*
D02*
G37*
G36*
X209550D02*
X200660D01*
Y156142D01*
X201352Y153558D01*
X202690Y151242D01*
X204582Y149350D01*
X206898Y148012D01*
X209482Y147320D01*
X209550D01*
Y156210D01*
D02*
G37*
G36*
X186758Y167640D02*
X184082D01*
X181498Y166948D01*
X179182Y165610D01*
X177290Y163718D01*
X175952Y161402D01*
X175260Y158818D01*
Y156142D01*
X175952Y153558D01*
X177290Y151242D01*
X179182Y149350D01*
X181498Y148012D01*
X184082Y147320D01*
X186758D01*
X189342Y148012D01*
X191658Y149350D01*
X193550Y151242D01*
X194888Y153558D01*
X195580Y156142D01*
Y158818D01*
X194888Y161402D01*
X193550Y163718D01*
X191658Y165610D01*
X189342Y166948D01*
X186758Y167640D01*
D02*
G37*
G36*
X161358D02*
X158682D01*
X156098Y166948D01*
X153782Y165610D01*
X151890Y163718D01*
X150552Y161402D01*
X149860Y158818D01*
Y156142D01*
X150552Y153558D01*
X151890Y151242D01*
X153782Y149350D01*
X156098Y148012D01*
X158682Y147320D01*
X161358D01*
X163942Y148012D01*
X166258Y149350D01*
X168150Y151242D01*
X169488Y153558D01*
X170180Y156142D01*
Y158818D01*
X169488Y161402D01*
X168150Y163718D01*
X166258Y165610D01*
X163942Y166948D01*
X161358Y167640D01*
D02*
G37*
G36*
X643958Y147320D02*
X641282D01*
X638698Y146628D01*
X636382Y145290D01*
X634490Y143398D01*
X633152Y141082D01*
X632460Y138498D01*
Y135822D01*
X633152Y133238D01*
X634490Y130922D01*
X636382Y129030D01*
X638698Y127692D01*
X641282Y127000D01*
X643958D01*
X646542Y127692D01*
X648858Y129030D01*
X650750Y130922D01*
X652088Y133238D01*
X652780Y135822D01*
Y138498D01*
X652088Y141082D01*
X650750Y143398D01*
X648858Y145290D01*
X646542Y146628D01*
X643958Y147320D01*
D02*
G37*
G36*
X567758D02*
X565082D01*
X562498Y146628D01*
X560182Y145290D01*
X558290Y143398D01*
X556952Y141082D01*
X556260Y138498D01*
Y135822D01*
X556952Y133238D01*
X558290Y130922D01*
X560182Y129030D01*
X562498Y127692D01*
X565082Y127000D01*
X567758D01*
X570342Y127692D01*
X572658Y129030D01*
X574550Y130922D01*
X575888Y133238D01*
X576580Y135822D01*
Y138498D01*
X575888Y141082D01*
X574550Y143398D01*
X572658Y145290D01*
X570342Y146628D01*
X567758Y147320D01*
D02*
G37*
G36*
X85158D02*
X82482D01*
X79898Y146628D01*
X77582Y145290D01*
X75690Y143398D01*
X74352Y141082D01*
X73660Y138498D01*
Y135822D01*
X74352Y133238D01*
X75690Y130922D01*
X77582Y129030D01*
X79898Y127692D01*
X82482Y127000D01*
X85158D01*
X87742Y127692D01*
X90058Y129030D01*
X91950Y130922D01*
X93288Y133238D01*
X93980Y135822D01*
Y138498D01*
X93288Y141082D01*
X91950Y143398D01*
X90058Y145290D01*
X87742Y146628D01*
X85158Y147320D01*
D02*
G37*
G36*
X643958Y121920D02*
X643890D01*
Y113030D01*
X652780D01*
Y113098D01*
X652088Y115682D01*
X650750Y117998D01*
X648858Y119890D01*
X646542Y121228D01*
X643958Y121920D01*
D02*
G37*
G36*
X641350D02*
X641282D01*
X638698Y121228D01*
X636382Y119890D01*
X634490Y117998D01*
X633152Y115682D01*
X632460Y113098D01*
Y113030D01*
X641350D01*
Y121920D01*
D02*
G37*
G36*
X652780Y110490D02*
X643890D01*
Y101600D01*
X643958D01*
X646542Y102292D01*
X648858Y103630D01*
X650750Y105522D01*
X652088Y107838D01*
X652780Y110422D01*
Y110490D01*
D02*
G37*
G36*
X641350D02*
X632460D01*
Y110422D01*
X633152Y107838D01*
X634490Y105522D01*
X636382Y103630D01*
X638698Y102292D01*
X641282Y101600D01*
X641350D01*
Y110490D01*
D02*
G37*
G36*
X567758Y121920D02*
X565082D01*
X562498Y121228D01*
X560182Y119890D01*
X558290Y117998D01*
X556952Y115682D01*
X556260Y113098D01*
Y110422D01*
X556952Y107838D01*
X558290Y105522D01*
X560182Y103630D01*
X562498Y102292D01*
X565082Y101600D01*
X567758D01*
X570342Y102292D01*
X572658Y103630D01*
X574550Y105522D01*
X575888Y107838D01*
X576580Y110422D01*
Y113098D01*
X575888Y115682D01*
X574550Y117998D01*
X572658Y119890D01*
X570342Y121228D01*
X567758Y121920D01*
D02*
G37*
G36*
X85158D02*
X82482D01*
X79898Y121228D01*
X77582Y119890D01*
X75690Y117998D01*
X74352Y115682D01*
X73660Y113098D01*
Y110422D01*
X74352Y107838D01*
X75690Y105522D01*
X77582Y103630D01*
X79898Y102292D01*
X82482Y101600D01*
X85158D01*
X87742Y102292D01*
X90058Y103630D01*
X91950Y105522D01*
X93288Y107838D01*
X93980Y110422D01*
Y113098D01*
X93288Y115682D01*
X91950Y117998D01*
X90058Y119890D01*
X87742Y121228D01*
X85158Y121920D01*
D02*
G37*
G36*
X491641Y122550D02*
X488800D01*
X486055Y121815D01*
X483595Y120394D01*
X481586Y118385D01*
X480165Y115925D01*
X479430Y113181D01*
Y110339D01*
X480165Y107595D01*
X481586Y105135D01*
X483595Y103126D01*
X486055Y101705D01*
X488800Y100970D01*
X491641D01*
X494385Y101705D01*
X496845Y103126D01*
X498854Y105135D01*
X500275Y107595D01*
X501010Y110339D01*
Y113181D01*
X500275Y115925D01*
X498854Y118385D01*
X496845Y120394D01*
X494385Y121815D01*
X491641Y122550D01*
D02*
G37*
G36*
X339610Y108638D02*
Y100330D01*
X347918D01*
X347267Y102758D01*
X346006Y104942D01*
X344222Y106726D01*
X342038Y107987D01*
X339610Y108638D01*
D02*
G37*
G36*
X337070D02*
X334642Y107987D01*
X332458Y106726D01*
X330674Y104942D01*
X329413Y102758D01*
X328762Y100330D01*
X337070D01*
Y108638D01*
D02*
G37*
G36*
X347918Y97790D02*
X339610D01*
Y89482D01*
X342038Y90133D01*
X344222Y91394D01*
X346006Y93178D01*
X347267Y95362D01*
X347918Y97790D01*
D02*
G37*
G36*
X337070D02*
X328762D01*
X329413Y95362D01*
X330674Y93178D01*
X332458Y91394D01*
X334642Y90133D01*
X337070Y89482D01*
Y97790D01*
D02*
G37*
G36*
X404601Y108640D02*
X402079D01*
X399642Y107987D01*
X397458Y106726D01*
X395674Y104942D01*
X394413Y102758D01*
X393760Y100321D01*
Y97799D01*
X394413Y95362D01*
X395674Y93178D01*
X397458Y91394D01*
X399642Y90133D01*
X402079Y89480D01*
X404601D01*
X407038Y90133D01*
X409222Y91394D01*
X411006Y93178D01*
X412267Y95362D01*
X412920Y97799D01*
Y100321D01*
X412267Y102758D01*
X411006Y104942D01*
X409222Y106726D01*
X407038Y107987D01*
X404601Y108640D01*
D02*
G37*
G36*
X34441Y99690D02*
X31600D01*
X28855Y98955D01*
X26395Y97534D01*
X24386Y95525D01*
X22965Y93065D01*
X22230Y90321D01*
Y87479D01*
X22965Y84735D01*
X24386Y82275D01*
X26395Y80266D01*
X28855Y78845D01*
X31600Y78110D01*
X34441D01*
X37185Y78845D01*
X39645Y80266D01*
X41654Y82275D01*
X43075Y84735D01*
X43810Y87479D01*
Y90321D01*
X43075Y93065D01*
X41654Y95525D01*
X39645Y97534D01*
X37185Y98955D01*
X34441Y99690D01*
D02*
G37*
G36*
X643958Y96520D02*
X641282D01*
X638698Y95828D01*
X636382Y94490D01*
X634490Y92598D01*
X633152Y90282D01*
X632460Y87698D01*
Y85022D01*
X633152Y82438D01*
X634490Y80122D01*
X636382Y78230D01*
X638698Y76892D01*
X641282Y76200D01*
X643958D01*
X646542Y76892D01*
X648858Y78230D01*
X650750Y80122D01*
X652088Y82438D01*
X652780Y85022D01*
Y87698D01*
X652088Y90282D01*
X650750Y92598D01*
X648858Y94490D01*
X646542Y95828D01*
X643958Y96520D01*
D02*
G37*
G36*
X567758D02*
X565082D01*
X562498Y95828D01*
X560182Y94490D01*
X558290Y92598D01*
X556952Y90282D01*
X556260Y87698D01*
Y85022D01*
X556952Y82438D01*
X558290Y80122D01*
X560182Y78230D01*
X562498Y76892D01*
X565082Y76200D01*
X567758D01*
X570342Y76892D01*
X572658Y78230D01*
X574550Y80122D01*
X575888Y82438D01*
X576580Y85022D01*
Y87698D01*
X575888Y90282D01*
X574550Y92598D01*
X572658Y94490D01*
X570342Y95828D01*
X567758Y96520D01*
D02*
G37*
G36*
X85158D02*
X82482D01*
X79898Y95828D01*
X77582Y94490D01*
X75690Y92598D01*
X74352Y90282D01*
X73660Y87698D01*
Y85022D01*
X74352Y82438D01*
X75690Y80122D01*
X77582Y78230D01*
X79898Y76892D01*
X82482Y76200D01*
X85158D01*
X87742Y76892D01*
X90058Y78230D01*
X91950Y80122D01*
X93288Y82438D01*
X93980Y85022D01*
Y87698D01*
X93288Y90282D01*
X91950Y92598D01*
X90058Y94490D01*
X87742Y95828D01*
X85158Y96520D01*
D02*
G37*
G36*
X491641Y97150D02*
X488800D01*
X486055Y96415D01*
X483595Y94994D01*
X481586Y92985D01*
X480165Y90525D01*
X479430Y87781D01*
Y84939D01*
X480165Y82195D01*
X481586Y79735D01*
X483595Y77726D01*
X486055Y76305D01*
X488800Y75570D01*
X491641D01*
X494385Y76305D01*
X496845Y77726D01*
X498854Y79735D01*
X500275Y82195D01*
X501010Y84939D01*
Y87781D01*
X500275Y90525D01*
X498854Y92985D01*
X496845Y94994D01*
X494385Y96415D01*
X491641Y97150D01*
D02*
G37*
G36*
X34441Y74290D02*
X34290D01*
Y64770D01*
X43810D01*
Y64921D01*
X43075Y67665D01*
X41654Y70125D01*
X39645Y72134D01*
X37185Y73555D01*
X34441Y74290D01*
D02*
G37*
G36*
X31750D02*
X31600D01*
X28855Y73555D01*
X26395Y72134D01*
X24386Y70125D01*
X22965Y67665D01*
X22230Y64921D01*
Y64770D01*
X31750D01*
Y74290D01*
D02*
G37*
G36*
X491641Y71750D02*
X491490D01*
Y62230D01*
X501010D01*
Y62380D01*
X500275Y65125D01*
X498854Y67585D01*
X496845Y69594D01*
X494385Y71015D01*
X491641Y71750D01*
D02*
G37*
G36*
X488950D02*
X488800D01*
X486055Y71015D01*
X483595Y69594D01*
X481586Y67585D01*
X480165Y65125D01*
X479430Y62380D01*
Y62230D01*
X488950D01*
Y71750D01*
D02*
G37*
G36*
X43810Y62230D02*
X34290D01*
Y52710D01*
X34441D01*
X37185Y53445D01*
X39645Y54866D01*
X41654Y56875D01*
X43075Y59335D01*
X43810Y62080D01*
Y62230D01*
D02*
G37*
G36*
X31750D02*
X22230D01*
Y62080D01*
X22965Y59335D01*
X24386Y56875D01*
X26395Y54866D01*
X28855Y53445D01*
X31600Y52710D01*
X31750D01*
Y62230D01*
D02*
G37*
G36*
X643958Y71120D02*
X641282D01*
X638698Y70428D01*
X636382Y69090D01*
X634490Y67198D01*
X633152Y64882D01*
X632460Y62298D01*
Y59622D01*
X633152Y57038D01*
X634490Y54722D01*
X636382Y52830D01*
X638698Y51492D01*
X641282Y50800D01*
X643958D01*
X646542Y51492D01*
X648858Y52830D01*
X650750Y54722D01*
X652088Y57038D01*
X652780Y59622D01*
Y62298D01*
X652088Y64882D01*
X650750Y67198D01*
X648858Y69090D01*
X646542Y70428D01*
X643958Y71120D01*
D02*
G37*
G36*
X567758D02*
X565082D01*
X562498Y70428D01*
X560182Y69090D01*
X558290Y67198D01*
X556952Y64882D01*
X556260Y62298D01*
Y59622D01*
X556952Y57038D01*
X558290Y54722D01*
X560182Y52830D01*
X562498Y51492D01*
X565082Y50800D01*
X567758D01*
X570342Y51492D01*
X572658Y52830D01*
X574550Y54722D01*
X575888Y57038D01*
X576580Y59622D01*
Y62298D01*
X575888Y64882D01*
X574550Y67198D01*
X572658Y69090D01*
X570342Y70428D01*
X567758Y71120D01*
D02*
G37*
G36*
X85158D02*
X82482D01*
X79898Y70428D01*
X77582Y69090D01*
X75690Y67198D01*
X74352Y64882D01*
X73660Y62298D01*
Y59622D01*
X74352Y57038D01*
X75690Y54722D01*
X77582Y52830D01*
X79898Y51492D01*
X82482Y50800D01*
X85158D01*
X87742Y51492D01*
X90058Y52830D01*
X91950Y54722D01*
X93288Y57038D01*
X93980Y59622D01*
Y62298D01*
X93288Y64882D01*
X91950Y67198D01*
X90058Y69090D01*
X87742Y70428D01*
X85158Y71120D01*
D02*
G37*
G36*
X501010Y59690D02*
X491490D01*
Y50170D01*
X491641D01*
X494385Y50905D01*
X496845Y52326D01*
X498854Y54335D01*
X500275Y56795D01*
X501010Y59539D01*
Y59690D01*
D02*
G37*
G36*
X488950D02*
X479430D01*
Y59539D01*
X480165Y56795D01*
X481586Y54335D01*
X483595Y52326D01*
X486055Y50905D01*
X488800Y50170D01*
X488950D01*
Y59690D01*
D02*
G37*
G36*
X163487Y37520D02*
X161633D01*
X159843Y37040D01*
X158237Y36113D01*
X156927Y34803D01*
X156257Y33643D01*
X156214Y33626D01*
X154907D01*
X154863Y33643D01*
X154193Y34803D01*
X152883Y36113D01*
X151277Y37040D01*
X149830Y37428D01*
Y30480D01*
Y23532D01*
X151277Y23920D01*
X152883Y24847D01*
X154193Y26157D01*
X154863Y27317D01*
X154907Y27334D01*
X156214D01*
X156257Y27317D01*
X156927Y26157D01*
X158237Y24847D01*
X159843Y23920D01*
X161633Y23440D01*
X163487D01*
X165277Y23920D01*
X166883Y24847D01*
X168193Y26157D01*
X169120Y27763D01*
X169600Y29553D01*
Y31407D01*
X169120Y33197D01*
X168193Y34803D01*
X166883Y36113D01*
X165277Y37040D01*
X163487Y37520D01*
D02*
G37*
G36*
X147290Y37428D02*
X145843Y37040D01*
X144237Y36113D01*
X142927Y34803D01*
X142000Y33197D01*
X141612Y31750D01*
X147290D01*
Y37428D01*
D02*
G37*
G36*
X34441Y48890D02*
X31600D01*
X28855Y48155D01*
X26395Y46734D01*
X24386Y44725D01*
X22965Y42265D01*
X22230Y39520D01*
Y36679D01*
X22965Y33935D01*
X24386Y31475D01*
X26395Y29466D01*
X28855Y28045D01*
X31600Y27310D01*
X34441D01*
X37185Y28045D01*
X39645Y29466D01*
X41654Y31475D01*
X43075Y33935D01*
X43810Y36679D01*
Y39520D01*
X43075Y42265D01*
X41654Y44725D01*
X39645Y46734D01*
X37185Y48155D01*
X34441Y48890D01*
D02*
G37*
G36*
X643958Y45720D02*
X641282D01*
X638698Y45028D01*
X636382Y43690D01*
X634490Y41798D01*
X633152Y39482D01*
X632460Y36898D01*
Y34222D01*
X633152Y31638D01*
X634490Y29322D01*
X636382Y27430D01*
X638698Y26092D01*
X641282Y25400D01*
X643958D01*
X646542Y26092D01*
X648858Y27430D01*
X650750Y29322D01*
X652088Y31638D01*
X652780Y34222D01*
Y36898D01*
X652088Y39482D01*
X650750Y41798D01*
X648858Y43690D01*
X646542Y45028D01*
X643958Y45720D01*
D02*
G37*
G36*
X567758D02*
X565082D01*
X562498Y45028D01*
X560182Y43690D01*
X558290Y41798D01*
X556952Y39482D01*
X556260Y36898D01*
Y34222D01*
X556952Y31638D01*
X558290Y29322D01*
X560182Y27430D01*
X562498Y26092D01*
X565082Y25400D01*
X567758D01*
X570342Y26092D01*
X572658Y27430D01*
X574550Y29322D01*
X575888Y31638D01*
X576580Y34222D01*
Y36898D01*
X575888Y39482D01*
X574550Y41798D01*
X572658Y43690D01*
X570342Y45028D01*
X567758Y45720D01*
D02*
G37*
G36*
X85158D02*
X82482D01*
X79898Y45028D01*
X77582Y43690D01*
X75690Y41798D01*
X74352Y39482D01*
X73660Y36898D01*
Y34222D01*
X74352Y31638D01*
X75690Y29322D01*
X77582Y27430D01*
X79898Y26092D01*
X82482Y25400D01*
X85158D01*
X87742Y26092D01*
X90058Y27430D01*
X91950Y29322D01*
X93288Y31638D01*
X93980Y34222D01*
Y36898D01*
X93288Y39482D01*
X91950Y41798D01*
X90058Y43690D01*
X87742Y45028D01*
X85158Y45720D01*
D02*
G37*
G36*
X147290Y29210D02*
X141612D01*
X142000Y27763D01*
X142927Y26157D01*
X144237Y24847D01*
X145843Y23920D01*
X147290Y23532D01*
Y29210D01*
D02*
G37*
G36*
X382338Y-2540D02*
X382270D01*
Y-11430D01*
X391160D01*
Y-11362D01*
X390468Y-8778D01*
X389130Y-6462D01*
X387238Y-4570D01*
X384922Y-3232D01*
X382338Y-2540D01*
D02*
G37*
G36*
X379730D02*
X379662D01*
X377078Y-3232D01*
X374762Y-4570D01*
X372870Y-6462D01*
X371532Y-8778D01*
X370840Y-11362D01*
Y-11430D01*
X379730D01*
Y-2540D01*
D02*
G37*
G36*
X391160Y-13970D02*
X382270D01*
Y-22860D01*
X382338D01*
X384922Y-22168D01*
X387238Y-20830D01*
X389130Y-18938D01*
X390468Y-16622D01*
X391160Y-14038D01*
Y-13970D01*
D02*
G37*
G36*
X379730D02*
X370840D01*
Y-14038D01*
X371532Y-16622D01*
X372870Y-18938D01*
X374762Y-20830D01*
X377078Y-22168D01*
X379662Y-22860D01*
X379730D01*
Y-13970D01*
D02*
G37*
G36*
X356938Y-2540D02*
X354262D01*
X351678Y-3232D01*
X349362Y-4570D01*
X347470Y-6462D01*
X346132Y-8778D01*
X345440Y-11362D01*
Y-14038D01*
X346132Y-16622D01*
X347470Y-18938D01*
X349362Y-20830D01*
X351678Y-22168D01*
X354262Y-22860D01*
X356938D01*
X359522Y-22168D01*
X361838Y-20830D01*
X363730Y-18938D01*
X365068Y-16622D01*
X365760Y-14038D01*
Y-11362D01*
X365068Y-8778D01*
X363730Y-6462D01*
X361838Y-4570D01*
X359522Y-3232D01*
X356938Y-2540D01*
D02*
G37*
G36*
X331538D02*
X328862D01*
X326278Y-3232D01*
X323962Y-4570D01*
X322070Y-6462D01*
X320732Y-8778D01*
X320040Y-11362D01*
Y-14038D01*
X320732Y-16622D01*
X322070Y-18938D01*
X323962Y-20830D01*
X326278Y-22168D01*
X328862Y-22860D01*
X331538D01*
X334122Y-22168D01*
X336438Y-20830D01*
X338330Y-18938D01*
X339668Y-16622D01*
X340360Y-14038D01*
Y-11362D01*
X339668Y-8778D01*
X338330Y-6462D01*
X336438Y-4570D01*
X334122Y-3232D01*
X331538Y-2540D01*
D02*
G37*
%LPD*%
D38*
X464820Y243840D02*
D03*
Y218440D02*
D03*
Y193040D02*
D03*
X490220Y111760D02*
D03*
Y86360D02*
D03*
Y60960D02*
D03*
X213360Y231140D02*
D03*
X187960D02*
D03*
X162560D02*
D03*
X33020Y38100D02*
D03*
Y63500D02*
D03*
Y88900D02*
D03*
D39*
X566420Y254000D02*
D03*
Y279400D02*
D03*
Y304800D02*
D03*
Y330200D02*
D03*
Y355600D02*
D03*
Y381000D02*
D03*
Y406400D02*
D03*
Y431800D02*
D03*
Y457200D02*
D03*
Y482600D02*
D03*
X642620Y35560D02*
D03*
Y60960D02*
D03*
Y86360D02*
D03*
Y111760D02*
D03*
Y137160D02*
D03*
Y162560D02*
D03*
X160020Y157480D02*
D03*
X185420D02*
D03*
X210820D02*
D03*
X236220D02*
D03*
X381000Y-12700D02*
D03*
X355600D02*
D03*
X330200D02*
D03*
X304800D02*
D03*
Y584200D02*
D03*
X330200D02*
D03*
X355600D02*
D03*
X381000D02*
D03*
X541020Y553720D02*
D03*
X566420D02*
D03*
X591820D02*
D03*
X617220D02*
D03*
X642620D02*
D03*
X668020D02*
D03*
X83820Y35560D02*
D03*
Y60960D02*
D03*
Y86360D02*
D03*
Y111760D02*
D03*
Y137160D02*
D03*
Y162560D02*
D03*
Y213360D02*
D03*
Y238760D02*
D03*
Y264160D02*
D03*
Y289560D02*
D03*
Y314960D02*
D03*
Y340360D02*
D03*
Y365760D02*
D03*
Y391160D02*
D03*
X566420Y35560D02*
D03*
Y60960D02*
D03*
Y86360D02*
D03*
Y111760D02*
D03*
Y137160D02*
D03*
Y162560D02*
D03*
Y187960D02*
D03*
Y213360D02*
D03*
X642620Y431800D02*
D03*
Y406400D02*
D03*
Y381000D02*
D03*
Y355600D02*
D03*
Y330200D02*
D03*
Y304800D02*
D03*
D40*
X33020Y238760D02*
D03*
Y213360D02*
D03*
Y289560D02*
D03*
Y264160D02*
D03*
X323850Y490220D02*
D03*
X298450D02*
D03*
X374650D02*
D03*
X349250D02*
D03*
D41*
X338340Y99060D02*
D03*
X403340D02*
D03*
D42*
X148560Y30480D02*
D03*
X162560D02*
D03*
D43*
X351790Y349250D02*
D03*
X397510Y290830D02*
D03*
X306070Y289560D02*
D03*
X266700Y254000D02*
D03*
X482600Y381000D02*
D03*
X219710Y486410D02*
D03*
X275590Y485140D02*
D03*
X266700Y414020D02*
D03*
X200660Y402590D02*
D03*
X182880Y363220D02*
D03*
M02*
