G04*
G04 #@! TF.GenerationSoftware,Altium Limited,Altium Designer,24.3.1 (35)*
G04*
G04 Layer_Color=8388736*
%FSLAX44Y44*%
%MOMM*%
G71*
G04*
G04 #@! TF.SameCoordinates,5EED45F6-1682-4EC0-A4BB-04ECB5DEF22F*
G04*
G04*
G04 #@! TF.FilePolarity,Negative*
G04*
G01*
G75*
%ADD15R,0.6000X0.7000*%
%ADD16R,0.7000X0.6000*%
G04:AMPARAMS|DCode=24|XSize=1.8132mm|YSize=0.7932mm|CornerRadius=0.1754mm|HoleSize=0mm|Usage=FLASHONLY|Rotation=180.000|XOffset=0mm|YOffset=0mm|HoleType=Round|Shape=RoundedRectangle|*
%AMROUNDEDRECTD24*
21,1,1.8132,0.4425,0,0,180.0*
21,1,1.4625,0.7932,0,0,180.0*
1,1,0.3507,-0.7313,0.2213*
1,1,0.3507,0.7313,0.2213*
1,1,0.3507,0.7313,-0.2213*
1,1,0.3507,-0.7313,-0.2213*
%
%ADD24ROUNDEDRECTD24*%
%ADD25R,1.3208X2.0066*%
%ADD26R,1.7032X1.4032*%
%ADD27R,2.0066X1.3208*%
%ADD28R,1.7780X1.4097*%
%ADD29R,1.6002X1.8034*%
%ADD30R,1.8034X1.6002*%
%ADD31C,1.8532*%
%ADD32C,1.7272*%
%ADD33C,1.9812*%
%ADD34C,1.6112*%
%ADD35C,1.1032*%
%ADD36C,0.8382*%
D15*
X605630Y35560D02*
D03*
X595630D02*
D03*
D16*
X596900Y69850D02*
D03*
Y59850D02*
D03*
D24*
X260370Y484480D02*
D03*
Y474980D02*
D03*
Y465480D02*
D03*
X237470D02*
D03*
Y474980D02*
D03*
Y484480D02*
D03*
D25*
X154686Y60960D02*
D03*
X124714D02*
D03*
X266446Y431800D02*
D03*
X236474D02*
D03*
X182626Y345440D02*
D03*
X152654D02*
D03*
X217932Y60960D02*
D03*
X187960D02*
D03*
X157734Y83820D02*
D03*
X187706D02*
D03*
X432054Y381000D02*
D03*
X462026D02*
D03*
D26*
X497820Y340120D02*
D03*
X431820Y310120D02*
D03*
Y340120D02*
D03*
X497820Y310120D02*
D03*
D27*
X471170Y512826D02*
D03*
Y482854D02*
D03*
X177800Y404114D02*
D03*
Y434086D02*
D03*
X508000Y248666D02*
D03*
Y218694D02*
D03*
X504190Y482854D02*
D03*
Y512826D02*
D03*
D28*
X382524Y323469D02*
D03*
X333756D02*
D03*
X382524Y291211D02*
D03*
X333756D02*
D03*
X288544Y323469D02*
D03*
X239776D02*
D03*
X288544Y291211D02*
D03*
X239776D02*
D03*
X336804Y381889D02*
D03*
X288036D02*
D03*
X336804Y349631D02*
D03*
X288036D02*
D03*
Y222631D02*
D03*
X336804D02*
D03*
X288036Y254889D02*
D03*
X336804D02*
D03*
D29*
X178054Y462280D02*
D03*
X208026D02*
D03*
D30*
X152400Y320040D02*
D03*
Y290068D02*
D03*
D31*
X464820Y243840D02*
D03*
Y218440D02*
D03*
Y193040D02*
D03*
X490220Y111760D02*
D03*
Y86360D02*
D03*
Y60960D02*
D03*
X213360Y231140D02*
D03*
X187960D02*
D03*
X162560D02*
D03*
X33020Y38100D02*
D03*
Y63500D02*
D03*
Y88900D02*
D03*
D32*
X566420Y254000D02*
D03*
Y279400D02*
D03*
Y304800D02*
D03*
Y330200D02*
D03*
Y355600D02*
D03*
Y381000D02*
D03*
Y406400D02*
D03*
Y431800D02*
D03*
Y457200D02*
D03*
Y482600D02*
D03*
X642620Y35560D02*
D03*
Y60960D02*
D03*
Y86360D02*
D03*
Y111760D02*
D03*
Y137160D02*
D03*
Y162560D02*
D03*
X160020Y157480D02*
D03*
X185420D02*
D03*
X210820D02*
D03*
X236220D02*
D03*
X381000Y-12700D02*
D03*
X355600D02*
D03*
X330200D02*
D03*
X304800D02*
D03*
Y584200D02*
D03*
X330200D02*
D03*
X355600D02*
D03*
X381000D02*
D03*
X541020Y553720D02*
D03*
X566420D02*
D03*
X591820D02*
D03*
X617220D02*
D03*
X642620D02*
D03*
X668020D02*
D03*
X83820Y35560D02*
D03*
Y60960D02*
D03*
Y86360D02*
D03*
Y111760D02*
D03*
Y137160D02*
D03*
Y162560D02*
D03*
Y213360D02*
D03*
Y238760D02*
D03*
Y264160D02*
D03*
Y289560D02*
D03*
Y314960D02*
D03*
Y340360D02*
D03*
Y365760D02*
D03*
Y391160D02*
D03*
X566420Y35560D02*
D03*
Y60960D02*
D03*
Y86360D02*
D03*
Y111760D02*
D03*
Y137160D02*
D03*
Y162560D02*
D03*
Y187960D02*
D03*
Y213360D02*
D03*
X642620Y431800D02*
D03*
Y406400D02*
D03*
Y381000D02*
D03*
Y355600D02*
D03*
Y330200D02*
D03*
Y304800D02*
D03*
D33*
X33020Y238760D02*
D03*
Y213360D02*
D03*
Y289560D02*
D03*
Y264160D02*
D03*
X323850Y490220D02*
D03*
X298450D02*
D03*
X374650D02*
D03*
X349250D02*
D03*
D34*
X338340Y99060D02*
D03*
X403340D02*
D03*
D35*
X148560Y30480D02*
D03*
X162560D02*
D03*
D36*
X351790Y349250D02*
D03*
X397510Y290830D02*
D03*
X306070Y289560D02*
D03*
X266700Y254000D02*
D03*
X482600Y381000D02*
D03*
X219710Y486410D02*
D03*
X275590Y485140D02*
D03*
X266700Y414020D02*
D03*
X200660Y402590D02*
D03*
X182880Y363220D02*
D03*
M02*
