M48
;Layer_Color=9474304
;FILE_FORMAT=4:4
METRIC,LZ
;TYPE=PLATED
T01F00S00C0.3302
T02F00S00C0.5500
T03F00S00C0.9000
T04F00S00C1.0160
T05F00S00C1.1000
%
T01
X002667Y00254
X0030607Y0028956
X0039751Y0029083
X0035179Y0034925
X002667Y0041402
X0020066Y0040259
X0018288Y0036322
X004826Y00381
X0027559Y0048514
X0021971Y0048641
T02
X0014856Y0003048
X0016256
T03
X0033834Y0009906
X0040334
T04
X0003302Y0021336
Y0023876
Y0026416
Y0028956
X0029845Y0049022
X0032385
X0034925
X0037465
T05
X0003302Y000381
Y000635
X0008382Y0006096
Y0003556
X003048Y-000127
X003302
X003556
X00381
X0049022Y0006096
X0056642
Y0003556
X0064262
Y0006096
Y0008636
Y0011176
Y0013716
Y0016256
X0056642
Y0013716
Y0011176
Y0008636
Y0018796
Y0021336
Y00254
Y002794
Y003048
Y003302
Y003556
Y00381
Y004064
Y004318
Y004572
X0064262Y004318
Y004064
Y00381
Y003556
Y003302
Y003048
X0046482Y0024384
Y0021844
Y0019304
X0049022Y0011176
Y0008636
X0023622Y0015748
X0021082
X0018542
X0016002
X0016256Y0023114
X0018796
X0021336
X0008382Y0023876
Y0021336
Y0016256
Y0013716
Y0011176
Y0008636
X0003302Y000889
X0008382Y0026416
Y0028956
Y0031496
Y0034036
Y0036576
Y0039116
X003048Y005842
X003302
X003556
X00381
X0054102Y0055372
X0056642
X0059182
X0061722
X0064262
X0066802
X0056642Y004826
M30
