G04*
G04 #@! TF.GenerationSoftware,Altium Limited,Altium Designer,24.3.1 (35)*
G04*
G04 Layer_Physical_Order=1*
G04 Layer_Color=255*
%FSLAX44Y44*%
%MOMM*%
G71*
G04*
G04 #@! TF.SameCoordinates,5EED45F6-1682-4EC0-A4BB-04ECB5DEF22F*
G04*
G04*
G04 #@! TF.FilePolarity,Positive*
G04*
G01*
G75*
%ADD10C,0.2540*%
%ADD12C,0.1524*%
%ADD15R,0.6000X0.7000*%
%ADD16R,0.7000X0.6000*%
G04:AMPARAMS|DCode=17|XSize=1.61mm|YSize=0.59mm|CornerRadius=0.0738mm|HoleSize=0mm|Usage=FLASHONLY|Rotation=180.000|XOffset=0mm|YOffset=0mm|HoleType=Round|Shape=RoundedRectangle|*
%AMROUNDEDRECTD17*
21,1,1.6100,0.4425,0,0,180.0*
21,1,1.4625,0.5900,0,0,180.0*
1,1,0.1475,-0.7313,0.2213*
1,1,0.1475,0.7313,0.2213*
1,1,0.1475,0.7313,-0.2213*
1,1,0.1475,-0.7313,-0.2213*
%
%ADD17ROUNDEDRECTD17*%
%ADD18R,1.1176X1.8034*%
%ADD19R,1.5000X1.2000*%
%ADD20R,1.8034X1.1176*%
%ADD21R,1.5748X1.2065*%
%ADD22R,1.3970X1.6002*%
%ADD23R,1.6002X1.3970*%
%ADD37C,0.5080*%
%ADD38C,1.6500*%
%ADD39C,1.5240*%
%ADD40C,1.7780*%
%ADD41C,1.4080*%
%ADD42C,0.9000*%
%ADD43C,0.6350*%
D10*
X266700Y254000D02*
X287147D01*
X219710Y477879D02*
Y486410D01*
Y477879D02*
X222538Y475051D01*
X237399D01*
X237470Y474980D01*
X260370Y484480D02*
X260700Y484810D01*
X275260D01*
X275590Y485140D01*
X177800Y434086D02*
Y462026D01*
X178054Y462280D01*
X266700Y414020D02*
Y431546D01*
X266446Y431800D02*
X266700Y431546D01*
X179324Y402590D02*
X200660D01*
X177800Y404114D02*
X179324Y402590D01*
X333756Y304174D02*
X368300Y338718D01*
X333756Y291211D02*
Y304174D01*
X336804Y381889D02*
X359791D01*
X368300Y373380D01*
Y338718D02*
Y373380D01*
X288544Y291211D02*
X290195Y289560D01*
X288036Y349631D02*
X288544Y349123D01*
X336804Y349631D02*
X337693Y350520D01*
X382524Y291211D02*
X383413Y292100D01*
X287147Y254000D02*
X288036Y254889D01*
X507746Y218440D02*
X508000Y218694D01*
D12*
X337693Y350520D02*
X338963Y349250D01*
X351790D01*
X383413Y292100D02*
X384683Y290830D01*
X397510D01*
X290195Y289560D02*
X306070D01*
X596900Y69850D02*
X608330D01*
X617220Y60960D02*
X642620D01*
X608330Y69850D02*
X617220Y60960D01*
X593010Y59850D02*
X596900D01*
X591900Y60960D02*
X593010Y59850D01*
X566420Y60960D02*
X591900D01*
X642620Y86360D02*
X653542Y75438D01*
Y56436D02*
Y75438D01*
X638096Y46482D02*
X643588D01*
X627174Y35560D02*
X638096Y46482D01*
X643588D02*
X653542Y56436D01*
X605630Y35560D02*
X627174D01*
X566420D02*
X595630D01*
X462026Y381000D02*
X482600D01*
X398780Y557530D02*
X500380D01*
X381123Y575187D02*
Y584077D01*
X381000Y584200D02*
X381123Y584077D01*
Y575187D02*
X398780Y557530D01*
X579120Y556466D02*
X587804Y565150D01*
X579120Y550974D02*
Y556466D01*
X561546Y533400D02*
X579120Y550974D01*
X524510Y533400D02*
X561546D01*
X500380Y557530D02*
X524510Y533400D01*
X587804Y565150D02*
X599440D01*
X608564Y556026D01*
X614914D01*
X617220Y553720D01*
X566420Y381000D02*
X579120Y393700D01*
X658237D02*
X659130Y392807D01*
Y346710D02*
Y392807D01*
X579120Y393700D02*
X658237D01*
X642620Y330200D02*
X659130Y346710D01*
X154686Y38354D02*
X162560Y30480D01*
X170180D01*
X448310Y231140D02*
X499110D01*
X422910Y205740D02*
X448310Y231140D01*
X499110D02*
X501650Y233680D01*
X596900D01*
X604520Y226060D01*
X294640Y205740D02*
X422910D01*
X594360Y164048D02*
Y223897D01*
X527050Y224790D02*
X593467D01*
X520700Y218440D02*
X527050Y224790D01*
X593467D02*
X594360Y223897D01*
X507746Y218440D02*
X520700D01*
X592872Y162560D02*
X594360Y164048D01*
X186690Y46990D02*
X217039D01*
X170180Y30480D02*
X186690Y46990D01*
X217039D02*
X217932Y47883D01*
Y60960D01*
X154686Y38354D02*
Y60960D01*
X566420Y137160D02*
X568960Y139700D01*
X582712D02*
X586740Y135672D01*
X568960Y139700D02*
X582712D01*
X517479Y100838D02*
X583438D01*
X586740Y104140D02*
Y135672D01*
X583438Y100838D02*
X586740Y104140D01*
X546100Y111760D02*
X566420D01*
X544287Y113573D02*
Y147697D01*
Y113573D02*
X546100Y111760D01*
X604520Y149483D02*
Y226060D01*
X544287Y147697D02*
X545179Y148590D01*
X603627D02*
X604520Y149483D01*
X545179Y148590D02*
X603627D01*
X436880Y459740D02*
X459994Y482854D01*
X266110Y459740D02*
X436880D01*
X260370Y465480D02*
X266110Y459740D01*
X396240Y474980D02*
X413512Y492252D01*
X260370Y474980D02*
X396240D01*
X413512Y492252D02*
X500888D01*
X459994Y482854D02*
X471170D01*
Y472440D02*
Y482854D01*
Y472440D02*
X486410Y457200D01*
X566420D01*
X471170Y482854D02*
X474599D01*
X500888Y492252D02*
X503305Y489835D01*
X507619Y482600D02*
X566420D01*
X503305Y483739D02*
X504190Y482854D01*
X503305Y483739D02*
Y489835D01*
X504190Y482854D02*
X507619D01*
X237470Y490637D02*
X238958Y492125D01*
X237470Y484480D02*
Y490637D01*
X238958Y492125D02*
X296545D01*
X298450Y490220D01*
X388919Y550881D02*
X486128D01*
X517017Y519992D01*
Y492252D02*
Y519992D01*
X566420Y482600D02*
Y528320D01*
X507619Y482854D02*
X517017Y492252D01*
X355600Y584200D02*
X388919Y550881D01*
X566420Y457200D02*
X617220Y508000D01*
Y553720D01*
X566420Y355600D02*
X591820Y381000D01*
X642620D01*
X566420Y330200D02*
X591820Y355600D01*
X642620D01*
X566420Y304800D02*
X642620D01*
X566420Y528320D02*
X591820Y553720D01*
X330200Y-12700D02*
Y-10160D01*
X368300Y132080D02*
X409992Y173772D01*
X368300Y27940D02*
Y132080D01*
X330200Y-10160D02*
X368300Y27940D01*
X355600Y2540D02*
X381000Y27940D01*
X355600Y-12700D02*
Y2540D01*
X381000Y27940D02*
Y129540D01*
X33020Y38100D02*
X34290D01*
X82550Y86360D01*
X83820D01*
X381000Y129540D02*
X420152Y168692D01*
X528936D01*
X409992Y173772D02*
X501432D01*
X541020Y213360D02*
X566420D01*
X501432Y173772D02*
X541020Y213360D01*
X548204Y187960D02*
X566420D01*
X528936Y168692D02*
X548204Y187960D01*
X495005Y123312D02*
X517479Y100838D01*
X403340Y99060D02*
X427592Y123312D01*
X495005D01*
X490220Y86360D02*
X566420D01*
X288036Y212344D02*
X294640Y205740D01*
X152400Y320040D02*
Y345186D01*
X152654Y345440D01*
X336804Y266319D02*
X382524Y312039D01*
X336804Y254889D02*
Y266319D01*
X382524Y312039D02*
Y323469D01*
X288036Y212344D02*
Y222631D01*
X288544Y323469D02*
Y349123D01*
X182626Y345440D02*
X182880Y345694D01*
Y363220D01*
X431820Y380766D02*
X432054Y381000D01*
X431820Y340120D02*
Y380766D01*
X525890Y319930D02*
X566420Y279400D01*
X499122Y319930D02*
X525890D01*
X478932Y340120D02*
X499122Y319930D01*
X431820Y340120D02*
X478932D01*
X464820Y218440D02*
X507746D01*
X566420Y162560D02*
X592872D01*
X83820Y111760D02*
X114300D01*
X160020Y157480D01*
X83820Y162560D02*
Y177800D01*
X137160Y231140D01*
X162560D01*
X73283Y137160D02*
X83820D01*
X72390Y136267D02*
X73283Y137160D01*
X72390Y98683D02*
Y136267D01*
X123821Y97790D02*
X124714Y96897D01*
Y60960D02*
Y96897D01*
X73283Y97790D02*
X123821D01*
X72390Y98683D02*
X73283Y97790D01*
X187960Y60960D02*
Y83566D01*
X187706Y83820D02*
X187960Y83566D01*
X154320Y60594D02*
X154686Y60960D01*
D15*
X605630Y35560D02*
D03*
X595630D02*
D03*
D16*
X596900Y69850D02*
D03*
Y59850D02*
D03*
D17*
X260370Y484480D02*
D03*
Y474980D02*
D03*
Y465480D02*
D03*
X237470D02*
D03*
Y474980D02*
D03*
Y484480D02*
D03*
D18*
X154686Y60960D02*
D03*
X124714D02*
D03*
X266446Y431800D02*
D03*
X236474D02*
D03*
X182626Y345440D02*
D03*
X152654D02*
D03*
X217932Y60960D02*
D03*
X187960D02*
D03*
X157734Y83820D02*
D03*
X187706D02*
D03*
X432054Y381000D02*
D03*
X462026D02*
D03*
D19*
X497820Y340120D02*
D03*
X431820Y310120D02*
D03*
Y340120D02*
D03*
X497820Y310120D02*
D03*
D20*
X471170Y512826D02*
D03*
Y482854D02*
D03*
X177800Y404114D02*
D03*
Y434086D02*
D03*
X508000Y248666D02*
D03*
Y218694D02*
D03*
X504190Y482854D02*
D03*
Y512826D02*
D03*
D21*
X382524Y323469D02*
D03*
X333756D02*
D03*
X382524Y291211D02*
D03*
X333756D02*
D03*
X288544Y323469D02*
D03*
X239776D02*
D03*
X288544Y291211D02*
D03*
X239776D02*
D03*
X336804Y381889D02*
D03*
X288036D02*
D03*
X336804Y349631D02*
D03*
X288036D02*
D03*
Y222631D02*
D03*
X336804D02*
D03*
X288036Y254889D02*
D03*
X336804D02*
D03*
D22*
X178054Y462280D02*
D03*
X208026D02*
D03*
D23*
X152400Y320040D02*
D03*
Y290068D02*
D03*
D37*
X16510Y15676D02*
Y84635D01*
X19486Y87611D02*
X31731D01*
X16510Y84635D02*
X19486Y87611D01*
X16510Y15676D02*
X19486Y12700D01*
X100330D01*
X31731Y87611D02*
X33020Y88900D01*
X440690Y243840D02*
X464820D01*
X336804Y222631D02*
X419481D01*
X440690Y243840D01*
X464820D02*
X482012D01*
X657860Y407988D02*
X664887D01*
X657860D02*
Y538480D01*
X642620Y406400D02*
X644208Y407988D01*
X657860D01*
X667863Y137160D02*
Y405012D01*
X664887Y407988D02*
X667863Y405012D01*
Y31848D02*
Y137160D01*
X642620Y553720D02*
X657860Y538480D01*
X139700Y52070D02*
Y83384D01*
X100330Y12700D02*
X139700Y52070D01*
X642620Y137160D02*
X666750D01*
X660400Y22026D02*
X667863Y31848D01*
X208026Y491236D02*
X229498Y512708D01*
X330200D01*
Y584200D01*
Y512708D02*
X471052D01*
X471170Y512826D02*
X504190D01*
X208026Y462280D02*
Y491236D01*
X330200Y584200D02*
X330200Y584200D01*
X236474Y385826D02*
X240411Y381889D01*
X236474Y385826D02*
Y431800D01*
X240411Y381889D02*
X288036D01*
X226558Y465480D02*
X237470D01*
X208026Y462280D02*
X223358D01*
X226558Y465480D01*
X237470Y432796D02*
Y465480D01*
X236474Y431800D02*
X237470Y432796D01*
X396240Y20320D02*
Y43180D01*
X462635Y109575D02*
X488035D01*
X396240Y43180D02*
X462635Y109575D01*
X397510Y19050D02*
X657424D01*
X660400Y22026D01*
X396240Y9326D02*
Y20320D01*
X397510Y19050D01*
X309444Y-25400D02*
X360860D01*
X306468Y-22424D02*
Y-14368D01*
Y-22424D02*
X309444Y-25400D01*
X304800Y-12700D02*
X306468Y-14368D01*
X371276Y6350D02*
X393264D01*
X368300Y-17960D02*
Y3374D01*
X393264Y6350D02*
X396240Y9326D01*
X368300Y3374D02*
X371276Y6350D01*
X360860Y-25400D02*
X368300Y-17960D01*
X304800Y-12700D02*
Y12700D01*
X239776Y323469D02*
X241618D01*
X199009D02*
X239776D01*
X236220Y81280D02*
X304800Y12700D01*
X321351Y321351D02*
X331638D01*
X255207Y309880D02*
X309880D01*
X331638Y321351D02*
X333756Y323469D01*
X309880Y309880D02*
X321351Y321351D01*
X241618Y323469D02*
X255207Y309880D01*
X488035Y109575D02*
X490220Y111760D01*
X236220Y81280D02*
Y157480D01*
X234276Y155536D02*
X236220Y157480D01*
X184187Y125767D02*
X199427D01*
X229196Y155536D02*
X234276D01*
X199427Y125767D02*
X229196Y155536D01*
X157734Y99314D02*
X184187Y125767D01*
X157734Y83820D02*
Y99314D01*
X139700Y83384D02*
X142676Y86360D01*
X155194D01*
X157734Y83820D01*
X165608Y290068D02*
X199009Y323469D01*
X152400Y290068D02*
X165608D01*
X151892Y277368D02*
Y289560D01*
Y277368D02*
X155936Y273324D01*
X187789D01*
X236220Y160020D02*
Y226060D01*
Y157480D02*
Y160020D01*
X332740Y238760D02*
X336804Y234696D01*
X248920Y238760D02*
X332740D01*
X336804Y222631D02*
Y234696D01*
X314098Y341494D02*
X317074Y338518D01*
X314098Y341494D02*
Y369162D01*
X317074Y338518D02*
X328549D01*
X301371Y381889D02*
X314098Y369162D01*
X333756Y323469D02*
Y333312D01*
X328549Y338518D02*
X333756Y333312D01*
X288036Y381889D02*
X301371D01*
X187789Y231311D02*
Y273324D01*
X187960Y208280D02*
Y231140D01*
Y208280D02*
X236220Y160020D01*
Y226060D02*
X248920Y238760D01*
X497820Y310120D02*
X498084Y309856D01*
Y299476D02*
X508000Y289560D01*
Y248666D02*
Y289560D01*
X498084Y299476D02*
Y309856D01*
X482012Y243840D02*
X486838Y248666D01*
X508000D01*
X83820Y289560D02*
X151892D01*
X152400Y290068D01*
X33020Y289560D02*
X83820D01*
D38*
X464820Y243840D02*
D03*
Y218440D02*
D03*
Y193040D02*
D03*
X490220Y111760D02*
D03*
Y86360D02*
D03*
Y60960D02*
D03*
X213360Y231140D02*
D03*
X187960D02*
D03*
X162560D02*
D03*
X33020Y38100D02*
D03*
Y63500D02*
D03*
Y88900D02*
D03*
D39*
X566420Y254000D02*
D03*
Y279400D02*
D03*
Y304800D02*
D03*
Y330200D02*
D03*
Y355600D02*
D03*
Y381000D02*
D03*
Y406400D02*
D03*
Y431800D02*
D03*
Y457200D02*
D03*
Y482600D02*
D03*
X642620Y35560D02*
D03*
Y60960D02*
D03*
Y86360D02*
D03*
Y111760D02*
D03*
Y137160D02*
D03*
Y162560D02*
D03*
X160020Y157480D02*
D03*
X185420D02*
D03*
X210820D02*
D03*
X236220D02*
D03*
X381000Y-12700D02*
D03*
X355600D02*
D03*
X330200D02*
D03*
X304800D02*
D03*
Y584200D02*
D03*
X330200D02*
D03*
X355600D02*
D03*
X381000D02*
D03*
X541020Y553720D02*
D03*
X566420D02*
D03*
X591820D02*
D03*
X617220D02*
D03*
X642620D02*
D03*
X668020D02*
D03*
X83820Y35560D02*
D03*
Y60960D02*
D03*
Y86360D02*
D03*
Y111760D02*
D03*
Y137160D02*
D03*
Y162560D02*
D03*
Y213360D02*
D03*
Y238760D02*
D03*
Y264160D02*
D03*
Y289560D02*
D03*
Y314960D02*
D03*
Y340360D02*
D03*
Y365760D02*
D03*
Y391160D02*
D03*
X566420Y35560D02*
D03*
Y60960D02*
D03*
Y86360D02*
D03*
Y111760D02*
D03*
Y137160D02*
D03*
Y162560D02*
D03*
Y187960D02*
D03*
Y213360D02*
D03*
X642620Y431800D02*
D03*
Y406400D02*
D03*
Y381000D02*
D03*
Y355600D02*
D03*
Y330200D02*
D03*
Y304800D02*
D03*
D40*
X33020Y238760D02*
D03*
Y213360D02*
D03*
Y289560D02*
D03*
Y264160D02*
D03*
X323850Y490220D02*
D03*
X298450D02*
D03*
X374650D02*
D03*
X349250D02*
D03*
D41*
X338340Y99060D02*
D03*
X403340D02*
D03*
D42*
X148560Y30480D02*
D03*
X162560D02*
D03*
D43*
X351790Y349250D02*
D03*
X397510Y290830D02*
D03*
X306070Y289560D02*
D03*
X266700Y254000D02*
D03*
X482600Y381000D02*
D03*
X219710Y486410D02*
D03*
X275590Y485140D02*
D03*
X266700Y414020D02*
D03*
X200660Y402590D02*
D03*
X182880Y363220D02*
D03*
M02*
